<?xml version="1.0" encoding="UTF-8"?>
<svg version="1.1" xmlns="http://www.w3.org/2000/svg" width="500" height="500">
<path d="M0 0 C1.62863993 1.49604712 3.2539615 2.99571972 4.875 4.5 C5.46925781 5.02851563 6.06351563 5.55703125 6.67578125 6.1015625 C23.49884807 21.76026431 34.34260118 44.52164312 39.875 66.5 C40.13748535 67.48637451 40.13748535 67.48637451 40.40527344 68.49267578 C45.37174935 87.80292422 45.21027698 111.28494623 39.875 130.5 C39.65457031 131.30131348 39.43414062 132.10262695 39.20703125 132.92822266 C32.60520614 156.10010483 21.36322586 174.99755989 4.875 192.5 C4.21371094 193.23734375 3.55242187 193.9746875 2.87109375 194.734375 C-12.98761767 211.70650638 -35.89510634 222.82459289 -58.125 228.5 C-59.1157251 228.76466064 -59.1157251 228.76466064 -60.12646484 229.03466797 C-79.64164568 234.05143675 -102.66287723 233.53966548 -122.125 228.5 C-123.39085937 228.18289063 -124.65671875 227.86578125 -125.9609375 227.5390625 C-148.83011617 221.33220479 -168.42595625 209.05025172 -185.125 192.5 C-186.05054688 191.58734375 -186.97609375 190.6746875 -187.9296875 189.734375 C-211.32022871 165.48242575 -223.60088405 132.30622968 -223.4375 98.8125 C-223.43186035 97.58934082 -223.4262207 96.36618164 -223.42041016 95.10595703 C-223.11768892 72.37189212 -217.02127722 52.37435564 -206.125 32.5 C-205.609375 31.55382812 -205.09375 30.60765625 -204.5625 29.6328125 C-187.83576675 0.45193548 -159.37393238 -20.70283723 -127.3125 -29.9375 C-81.78616905 -42.25431674 -35.15832236 -31.28134724 0 0 Z " fill="#01C8FD" transform="translate(340.125,151.5)"/>
<path d="M0 0 C1.25748047 -0.01224609 2.51496094 -0.02449219 3.81054688 -0.03710938 C5.6271582 -0.04000977 5.6271582 -0.04000977 7.48046875 -0.04296875 C9.12438599 -0.04913208 9.12438599 -0.04913208 10.80151367 -0.05541992 C13.8796022 0.19291366 16.01074272 0.94157654 18.8125 2.1875 C20.87174974 2.54035672 22.93474776 2.87166692 25 3.1875 C40.60086951 6.47447565 52.88864137 16.01070108 63.8125 27.1875 C64.67101562 28.02023438 65.52953125 28.85296875 66.4140625 29.7109375 C73.65003875 37.1826133 80.75064907 46.56899073 81.8125 57.1875 C82.4725 57.1875 83.1325 57.1875 83.8125 57.1875 C84.29789869 59.01919318 84.77547186 60.85296059 85.25 62.6875 C85.51683594 63.7084375 85.78367187 64.729375 86.05859375 65.78125 C90.69657612 86.73627918 88.29095749 108.61667323 79.8125 128.1875 C79.1525 128.1875 78.4925 128.1875 77.8125 128.1875 C77.55597656 129.06921875 77.29945313 129.9509375 77.03515625 130.859375 C71.70151813 145.37777653 58.38121193 156.08170585 45.8125 164.1875 C44.74515625 164.90550781 43.6778125 165.62351562 42.578125 166.36328125 C38.92026944 168.77601931 36.43692919 170.40409056 32 169.8125 C31.278125 169.60625 30.55625 169.4 29.8125 169.1875 C29.4825 167.2075 29.1525 165.2275 28.8125 163.1875 C28.1525 163.1875 27.4925 163.1875 26.8125 163.1875 C26.35810547 161.66382813 26.35810547 161.66382813 25.89453125 160.109375 C23.61139424 152.56609645 21.14409859 145.25472955 18.01171875 138.01171875 C15.55579816 132.22790576 13.23183175 126.31901316 11.8125 120.1875 C12.8025 119.8575 13.7925 119.5275 14.8125 119.1875 C14.8125 118.5275 14.8125 117.8675 14.8125 117.1875 C15.72 116.589375 16.6275 115.99125 17.5625 115.375 C20.84671097 113.16447338 22.59767666 111.43590756 24.8125 108.1875 C25.555 107.115 26.2975 106.0425 27.0625 104.9375 C29.15993811 100.6016892 29.2113847 96.35435754 29.25 91.625 C29.25999023 90.90473633 29.26998047 90.18447266 29.28027344 89.44238281 C29.20016849 84.44154559 28.27873129 80.63966809 25.8125 76.1875 C23.54736777 73.92537565 23.54736777 73.92537565 20.8125 72.1875 C19.84054687 71.51976562 18.86859375 70.85203125 17.8671875 70.1640625 C14.91524157 68.25397984 11.93211744 66.40471723 8.9375 64.5625 C2.13074493 60.29007171 -1.72305253 55.91215831 -3.74609375 48.00390625 C-5.10329081 42.00415924 -5.42251139 36.32390859 -5.1875 30.1875 C-9.14730925 33.12907259 -12.08356102 36.36726741 -15.1875 40.1875 C-15.909375 40.88875 -16.63125 41.59 -17.375 42.3125 C-19.17986942 44.17960629 -20.17070648 45.81498178 -21.1875 48.1875 C-21.8475 48.1875 -22.5075 48.1875 -23.1875 48.1875 C-23.36925781 48.75597656 -23.55101562 49.32445312 -23.73828125 49.91015625 C-24.95850974 53.65844788 -26.19951858 57.33808825 -27.8125 60.9375 C-32.7572367 72.62505947 -32.38813902 91.04881384 -28.0625 102.875 C-24.29751757 110.6799355 -19.90158767 115.33045616 -12.1875 119.1875 C-12.5175 121.1675 -12.8475 123.1475 -13.1875 125.1875 C-13.8475 125.1875 -14.5075 125.1875 -15.1875 125.1875 C-15.46335937 126.17878906 -15.73921875 127.17007813 -16.0234375 128.19140625 C-17.17144604 132.20943613 -18.47610732 136.16632516 -19.8125 140.125 C-20.04195313 140.80884766 -20.27140625 141.49269531 -20.5078125 142.19726562 C-21.06631734 143.86114464 -21.62670879 145.52439019 -22.1875 147.1875 C-22.8475 147.1875 -23.5075 147.1875 -24.1875 147.1875 C-24.290625 148.38375 -24.39375 149.58 -24.5 150.8125 C-24.99617713 154.79589383 -26.26638333 157.64082306 -28.1875 161.1875 C-28.87499738 163.3007732 -29.53791164 165.41394074 -30.1484375 167.55078125 C-31.1875 169.1875 -31.1875 169.1875 -33.4453125 170.0625 C-43.18284969 170.50637634 -54.22138276 160.32142337 -61.1875 154.1875 C-62.93223374 152.24085345 -64.55028928 150.22840652 -66.1875 148.1875 C-67.033125 147.3625 -67.87875 146.5375 -68.75 145.6875 C-75.1875 139.0849359 -75.1875 139.0849359 -75.1875 135.1875 C-75.8475 135.1875 -76.5075 135.1875 -77.1875 135.1875 C-78.64953396 132.157069 -80.07701532 129.11143772 -81.5 126.0625 C-81.90412109 125.22589844 -82.30824219 124.38929688 -82.72460938 123.52734375 C-88.33891044 111.38584713 -89.67188692 99.38779453 -89.5 86.125 C-89.50322266 84.84689453 -89.50644531 83.56878906 -89.50976562 82.25195312 C-89.45191645 72.22301024 -89.45191645 72.22301024 -87.1875 67.1875 C-86.70273808 65.25644289 -86.24548145 63.31832261 -85.8125 61.375 C-84.53932116 56.14010225 -82.90700279 51.83697251 -80.1875 47.1875 C-79.1975 46.6925 -79.1975 46.6925 -78.1875 46.1875 C-77.06043294 44.07734046 -77.06043294 44.07734046 -76.0625 41.625 C-75.70929688 40.79871094 -75.35609375 39.97242188 -74.9921875 39.12109375 C-74.72664062 38.48300781 -74.46109375 37.84492188 -74.1875 37.1875 C-73.5275 37.1875 -72.8675 37.1875 -72.1875 37.1875 C-71.878125 36.1665625 -71.878125 36.1665625 -71.5625 35.125 C-69.75854973 31.27110625 -67.2864655 28.10962236 -64.1875 25.1875 C-63.5275 25.1875 -62.8675 25.1875 -62.1875 25.1875 C-61.8575 24.1975 -61.5275 23.2075 -61.1875 22.1875 C-50.43547333 12.08559587 -37.0307475 4.14512887 -22.1875 3.1875 C-22.1875 2.5275 -22.1875 1.8675 -22.1875 1.1875 C-14.79343915 0.02782923 -7.47387396 0.00386646 0 0 Z " fill="#010102" transform="translate(250.1875,164.8125)"/>
<path d="M0 0 C1.62863993 1.49604712 3.2539615 2.99571972 4.875 4.5 C5.46925781 5.02851563 6.06351563 5.55703125 6.67578125 6.1015625 C23.49884807 21.76026431 34.34260118 44.52164312 39.875 66.5 C40.13748535 67.48637451 40.13748535 67.48637451 40.40527344 68.49267578 C45.37174935 87.80292422 45.21027698 111.28494623 39.875 130.5 C39.65457031 131.30131348 39.43414062 132.10262695 39.20703125 132.92822266 C32.60520614 156.10010483 21.36322586 174.99755989 4.875 192.5 C4.21371094 193.23734375 3.55242187 193.9746875 2.87109375 194.734375 C-12.98761767 211.70650638 -35.89510634 222.82459289 -58.125 228.5 C-59.1157251 228.76466064 -59.1157251 228.76466064 -60.12646484 229.03466797 C-79.64164568 234.05143675 -102.66287723 233.53966548 -122.125 228.5 C-123.39085937 228.18289063 -124.65671875 227.86578125 -125.9609375 227.5390625 C-148.83011617 221.33220479 -168.42595625 209.05025172 -185.125 192.5 C-186.05054688 191.58734375 -186.97609375 190.6746875 -187.9296875 189.734375 C-211.32022871 165.48242575 -223.60088405 132.30622968 -223.4375 98.8125 C-223.43186035 97.58934082 -223.4262207 96.36618164 -223.42041016 95.10595703 C-223.11768892 72.37189212 -217.02127722 52.37435564 -206.125 32.5 C-205.609375 31.55382812 -205.09375 30.60765625 -204.5625 29.6328125 C-187.83576675 0.45193548 -159.37393238 -20.70283723 -127.3125 -29.9375 C-81.78616905 -42.25431674 -35.15832236 -31.28134724 0 0 Z M-178.125 10.5 C-178.7128125 11.02464844 -179.300625 11.54929688 -179.90625 12.08984375 C-200.62663361 31.29529365 -212.91004638 61.586157 -214.26733398 89.41870117 C-215.36939685 124.36222633 -206.1841712 152.88408646 -184.2734375 180.21484375 C-182.31941901 182.55883039 -182.31941901 182.55883039 -179.9765625 183.56640625 C-177.54658454 184.7916483 -177.29501917 186.07701253 -176.125 188.5 C-161.76885828 203.89297417 -141.38562029 214.45313069 -121.125 219.5 C-120.02285156 219.79777344 -118.92070312 220.09554687 -117.78515625 220.40234375 C-85.96653273 227.77122454 -51.79724488 221.38916354 -24.125 204.5 C-16.50613071 199.52602316 -9.72898115 193.74149848 -3.125 187.5 C-2.48691406 186.90316406 -1.84882813 186.30632812 -1.19140625 185.69140625 C3.33398081 181.3272802 7.13575045 176.54422254 10.875 171.5 C11.44089844 170.77425781 12.00679687 170.04851562 12.58984375 169.30078125 C31.60672914 143.90181187 37.55249879 109.79657826 33.18359375 78.8515625 C30.00376857 60.25584607 23.06218956 41.79534839 11.875 26.5 C11.215 26.5 10.555 26.5 9.875 26.5 C9.875 25.84 9.875 25.18 9.875 24.5 C9.215 24.5 8.555 24.5 7.875 24.5 C7.7925 23.93667969 7.71 23.37335938 7.625 22.79296875 C6.00526317 17.84096083 1.39428092 14.21114203 -2.125 10.5 C-3.14980469 9.36111328 -3.14980469 9.36111328 -4.1953125 8.19921875 C-23.60929067 -12.58038146 -54.96661471 -24.64765053 -82.9296875 -25.88671875 C-119.58786959 -26.78839582 -151.60405987 -14.8198106 -178.125 10.5 Z " fill="#05A8E7" transform="translate(340.125,151.5)"/>
<path d="M0 0 C0.66 0 1.32 0 2 0 C2.12117188 0.90621094 2.24234375 1.81242188 2.3671875 2.74609375 C3.69510684 18.35960985 3.69510684 18.35960985 12.16796875 30.7109375 C14.74112975 32.53808128 17.35352603 34.28095606 20 36 C34.78433633 45.7707207 34.78433633 45.7707207 37 53 C37.39926877 55.86910876 37.42128535 58.66966532 37.375 61.5625 C37.38660156 62.29146484 37.39820313 63.02042969 37.41015625 63.77148438 C37.38421822 68.57434243 36.51727096 71.78457006 34 76 C33.06576355 72.98968256 32.95550089 72.13349732 34 69 C34.66 69 35.32 69 36 69 C35.67 62.73 35.34 56.46 35 50 C34.01 49.67 33.02 49.34 32 49 C31.443125 48.4225 30.88625 47.845 30.3125 47.25 C25.29309243 42.3662521 19.78368075 39.55459351 13 38 C12.67 36.35 12.34 34.7 12 33 C11.236875 32.95875 10.47375 32.9175 9.6875 32.875 C7 32 7 32 5.3125 29.25 C4.6628125 27.64125 4.6628125 27.64125 4 26 C3.608125 25.05125 3.21625 24.1025 2.8125 23.125 C2.544375 22.42375 2.27625 21.7225 2 21 C1.34 21 0.68 21 0 21 C-0.66 17.04 -1.32 13.08 -2 9 C-4.97017694 9.62810173 -4.97017694 9.62810173 -8 11 C-9.21869929 13.50447516 -9.21869929 13.50447516 -10 16 C-10.99 16.33 -11.98 16.66 -13 17 C-13.12375 18.051875 -13.2475 19.10375 -13.375 20.1875 C-13.91140782 23.45958771 -14.63880035 26.00536076 -16 29 C-16.66 29 -17.32 29 -18 29 C-18.12375 29.763125 -18.2475 30.52625 -18.375 31.3125 C-19 34 -19 34 -21 37 C-22.36147 41.67409128 -22.18374329 46.48512692 -22.1875 51.3125 C-22.19974609 52.12912109 -22.21199219 52.94574219 -22.22460938 53.78710938 C-22.23753188 59.1930232 -21.57437263 63.82037257 -20 69 C-19.67 69.33 -19.34 69.66 -19 70 C-18.95919217 71.99958364 -18.95745644 74.00045254 -19 76 C-24.17232483 68.24151276 -24.46894688 61.28468944 -24.375 52.1875 C-24.38660156 51.07568359 -24.39820313 49.96386719 -24.41015625 48.81835938 C-24.37687387 39.33842688 -22.82942844 30.73596114 -18.3125 22.3125 C-17.87550781 21.48363281 -17.43851563 20.65476563 -16.98828125 19.80078125 C-16.66214844 19.20652344 -16.33601562 18.61226562 -16 18 C-15.34 18 -14.68 18 -14 18 C-13.773125 17.278125 -13.54625 16.55625 -13.3125 15.8125 C-11.71916557 12.39821193 -9.72646404 10.60528786 -7 8 C-5.16126282 5.87594153 -3.34967824 3.73209741 -1.55078125 1.57421875 C-0.78314453 0.79498047 -0.78314453 0.79498047 0 0 Z " fill="#20AED5" transform="translate(243,195)"/>
<path d="M0 0 C0.33 2.64 0.66 5.28 1 8 C0.34 8 -0.32 8 -1 8 C-1 8.99 -1 9.98 -1 11 C-3.1385485 13.1385485 -4.13275314 13.42655063 -7 14 C-7.03738281 14.58007812 -7.07476562 15.16015625 -7.11328125 15.7578125 C-7.17902344 16.53898437 -7.24476563 17.32015625 -7.3125 18.125 C-7.37050781 18.89070313 -7.42851562 19.65640625 -7.48828125 20.4453125 C-8.7141019 26.56505834 -11.89519174 30.27028182 -16.4375 34.375 C-17.38496094 35.24898438 -18.33242188 36.12296875 -19.30859375 37.0234375 C-22 39 -22 39 -26 39 C-26 38.34 -26 37.68 -26 37 C-26.66 37 -27.32 37 -28 37 C-28.495 35.515 -28.495 35.515 -29 34 C-27.82244141 32.78376953 -27.82244141 32.78376953 -26.62109375 31.54296875 C-19.05860429 23.61680544 -13.11842388 15.57502467 -7.75 6 C-4.25 0 -4.25 0 0 0 Z " fill="#04A9EA" transform="translate(366,304)"/>
<path d="M0 0 C0.66 0.33 1.32 0.66 2 1 C1.67 1.66 1.34 2.32 1 3 C1.66 3 2.32 3 3 3 C3.33 3.66 3.66 4.32 4 5 C4.66 5 5.32 5 6 5 C4.83572675 8.0307113 3.55966703 10.98912955 2.1953125 13.93359375 C-2.06106299 23.16189148 -5.58026381 32.0981848 -8 42 C-8.66 41.34 -9.32 40.68 -10 40 C-11.32 40 -12.64 40 -14 40 C-14 37.36 -14 34.72 -14 32 C-13.34 31.67 -12.68 31.34 -12 31 C-11.31270746 28.88153715 -11.31270746 28.88153715 -10.875 26.4375 C-10.70742187 25.61121094 -10.53984375 24.78492188 -10.3671875 23.93359375 C-10.24601562 23.29550781 -10.12484375 22.65742188 -10 22 C-9.34 22 -8.68 22 -8 22 C-8.12375 21.0925 -8.2475 20.185 -8.375 19.25 C-8.44885925 13.27971049 -4.80013155 8.07523843 -2 3 C-1.34 3 -0.68 3 0 3 C0 2.01 0 1.02 0 0 Z " fill="#02ABEB" transform="translate(137,181)"/>
<path d="M0 0 C0.99 0 1.98 0 3 0 C2.57742724 1.4835001 2.13643678 2.96176424 1.6875 4.4375 C1.32205078 5.67306641 1.32205078 5.67306641 0.94921875 6.93359375 C0.47935547 7.95646484 0.47935547 7.95646484 0 9 C-0.99 9.33 -1.98 9.66 -3 10 C-3.53725613 11.64534691 -4.05782826 13.29911396 -4.46875 14.98046875 C-5.00679485 17.02583041 -5.71362191 18.91298666 -6.5 20.875 C-7.93982917 24.59092275 -8.80650992 28.30873057 -9.5703125 32.21484375 C-10 34 -10 34 -11 35 C-12.42504707 55.30249815 -10.6903112 72.79184844 -2.171875 91.3046875 C-1 94 -1 94 -1 96 C-1.99 95.67 -2.98 95.34 -4 95 C-5.28125 92.26953125 -5.28125 92.26953125 -6.5 88.8125 C-7.69299095 85.46677218 -8.8259594 82.31833446 -10.53125 79.19921875 C-14.39678628 70.77934052 -14.34544391 61.8434785 -14.31567383 52.71508789 C-14.31252079 50.70077947 -14.3360318 48.68795553 -14.36132812 46.67382812 C-14.36556422 38.05337396 -13.33620005 30.29912306 -11 22 C-10.34 22 -9.68 22 -9 22 C-8.938125 21.05125 -8.87625 20.1025 -8.8125 19.125 C-8.08083834 13.90793425 -5.49883801 9.56577809 -3 5 C-2.46375 3.96875 -1.9275 2.9375 -1.375 1.875 C-0.92125 1.25625 -0.4675 0.6375 0 0 Z " fill="#1BB3DB" transform="translate(173,202)"/>
<path d="M0 0 C0.66 0.66 1.32 1.32 2 2 C2.99 1.34 3.98 0.68 5 0 C7.6388041 0.46253195 10.06115011 1.02003539 12.625 1.75 C14.0672997 2.14342821 15.51000697 2.53536541 16.953125 2.92578125 C17.64857422 3.1160791 18.34402344 3.30637695 19.06054688 3.50244141 C21.4779097 4.12260574 23.91373797 4.53131133 26.375 4.9375 C30 6 30 6 31.5 8.5 C31.7475 9.7375 31.7475 9.7375 32 11 C32.495 11.99 32.495 11.99 33 13 C31.35425434 13.02688151 29.70838587 13.04634123 28.0625 13.0625 C27.14597656 13.07410156 26.22945312 13.08570313 25.28515625 13.09765625 C23 13 23 13 22 12 C17.49956742 10.71416212 12.97108217 9.95005607 8.3125 9.5625 C4.36312565 9.18834875 1.44589246 8.03219299 -2 6 C-1.34 4.02 -0.68 2.04 0 0 Z " fill="#03ABEC" transform="translate(207,368)"/>
<path d="M0 0 C2.39269355 3.58904033 3.13187655 7.10996411 4.0625 11.25 C4.23587891 11.98863281 4.40925781 12.72726563 4.58789062 13.48828125 C6.16222366 20.32848686 7.12605799 26.95987058 7.1328125 34 C7.13410156 35.299375 7.13539063 36.59875 7.13671875 37.9375 C7.13357666 38.93910156 7.13357666 38.93910156 7.13037109 39.9609375 C7.12501352 41.9948675 7.1303382 44.02857673 7.13671875 46.0625 C7.13542969 47.361875 7.13414062 48.66125 7.1328125 50 C7.13168457 51.175625 7.13055664 52.35125 7.12939453 53.5625 C6.99615653 57.10210572 6.56117176 60.50479714 6 64 C5.67 64 5.34 64 5 64 C5.33 53.44 5.66 42.88 6 32 C5.34 32 4.68 32 4 32 C3.34 30.68 2.68 29.36 2 28 C1.34 28.33 0.68 28.66 0 29 C-0.11027388 35.44489537 0.0614652 41.70332023 0.87890625 48.1015625 C0.91886719 48.72804688 0.95882813 49.35453125 1 50 C0.505 50.495 0.505 50.495 0 51 C-0.19149081 54.63194641 -0.19149081 54.63194641 1 58 C0.01 58.495 0.01 58.495 -1 59 C-1.65555119 61.52733235 -1.65555119 61.52733235 -2 64 C-2.33 64 -2.66 64 -3 64 C-3.07408977 57.93109825 -3.12857359 51.86245903 -3.16479492 45.79321289 C-3.17989271 43.72806209 -3.20037274 41.6629434 -3.22631836 39.59790039 C-3.26265795 36.63159261 -3.2797163 33.66570829 -3.29296875 30.69921875 C-3.30845261 29.7741301 -3.32393646 28.84904144 -3.33988953 27.8959198 C-3.34022942 26.60492119 -3.34022942 26.60492119 -3.34057617 25.2878418 C-3.34723801 24.53061325 -3.35389984 23.7733847 -3.36076355 22.99320984 C-2.9011217 20.45369979 -2.02330801 19.55435164 0 18 C0.66 18 1.32 18 2 18 C2 16.68 2 15.36 2 14 C1.34 14 0.68 14 0 14 C0 9.38 0 4.76 0 0 Z " fill="#0E9DD7" transform="translate(376,208)"/>
<path d="M0 0 C2 0 2 0 3.5625 1.3125 C5 3 5 3 6 6 C6.66 6.33 7.32 6.66 8 7 C8.474375 8.155 8.94875 9.31 9.4375 10.5 C9.953125 11.655 10.46875 12.81 11 14 C11.99 14.33 12.98 14.66 14 15 C15.52160014 18.6037898 16 21.05220686 16 25 C16.66 25 17.32 25 18 25 C19.8439944 31.27589853 20.29409829 36.92710052 20.265625 43.44921875 C20.26753845 44.42486282 20.2694519 45.4005069 20.27142334 46.40571594 C20.27277723 48.45545715 20.26913674 50.50520717 20.26074219 52.55493164 C20.24999654 55.68850911 20.2606825 58.82151788 20.2734375 61.95507812 C20.27211644 63.95312626 20.26955517 65.95117404 20.265625 67.94921875 C20.26967346 68.88263596 20.27372192 69.81605316 20.27789307 70.77775574 C20.24514682 75.32134952 20.0857938 78.86104156 18 83 C17.2460032 85.7830772 16.55899388 88.57694523 15.87890625 91.37890625 C14.9613193 94.11535445 13.94922043 95.88128214 12 98 C11.34 98 10.68 98 10 98 C9.67 99.32 9.34 100.64 9 102 C8.34 102 7.68 102 7 102 C7.66 100.02 8.32 98.04 9 96 C9.66 96 10.32 96 11 96 C11.12503906 95.278125 11.25007813 94.55625 11.37890625 93.8125 C11.9911554 91.040051 12.87555238 88.62882128 13.9375 86 C20.22341245 68.74231309 19.39933564 49.00072208 15.65625 31.23828125 C15 28 15 28 15 25 C14.34 25 13.68 25 13 25 C12.78085937 24.39414063 12.56171875 23.78828125 12.3359375 23.1640625 C9.8650089 16.63518613 6.71479488 10.89414121 3 5 C1.9965784 3.33539108 0.99565181 1.66926788 0 0 Z " fill="#1A9CBC" transform="translate(319,197)"/>
<path d="M0 0 C0.495 0.99 0.495 0.99 1 2 C-0.375 4 -0.375 4 -2 6 C-2.66 6 -3.32 6 -4 6 C-3.67 6.99 -3.34 7.98 -3 9 C-3.7425 9.70125 -4.485 10.4025 -5.25 11.125 C-8.08447466 13.91270179 -8.08447466 13.91270179 -10.125 17.25 C-12 20 -12 20 -15 21 C-15.9465911 22.80077673 -15.9465911 22.80077673 -16.5625 24.9375 C-17.45906516 27.72850228 -17.87774645 28.87774645 -20 31 C-20.71247732 32.6476038 -21.37400383 34.31763529 -22 36 C-22.66666667 37.66666667 -23.33333333 39.33333333 -24 41 C-24.66 41 -25.32 41 -26 41 C-26.1546875 42.36125 -26.1546875 42.36125 -26.3125 43.75 C-26.75158647 46.976331 -27.57480654 49.94392108 -28.5 53.0625 C-30.96721868 62.46200142 -30.76654919 72.33694227 -31 82 C-31.33 82 -31.66 82 -32 82 C-32.04962653 77.96154588 -32.08582632 73.92321113 -32.10986328 69.88452148 C-32.11988926 68.51209417 -32.13351356 67.13968805 -32.15087891 65.76733398 C-32.17527627 63.78899473 -32.18544484 61.81049633 -32.1953125 59.83203125 C-32.20578613 58.64327393 -32.21625977 57.4545166 -32.22705078 56.22973633 C-32.00162717 53.02314603 -31.32883417 50.89653162 -30 48 C-29.51523808 46.06894289 -29.05798145 44.13082261 -28.625 42.1875 C-27.35182116 36.95260225 -25.71950279 32.64947251 -23 28 C-22.34 27.67 -21.68 27.34 -21 27 C-19.87293294 24.88984046 -19.87293294 24.88984046 -18.875 22.4375 C-18.34519531 21.19806641 -18.34519531 21.19806641 -17.8046875 19.93359375 C-17.53914062 19.29550781 -17.27359375 18.65742188 -17 18 C-16.34 18 -15.68 18 -15 18 C-14.690625 16.9790625 -14.690625 16.9790625 -14.375 15.9375 C-12.57104973 12.08360625 -10.0989655 8.92212236 -7 6 C-6.34 6 -5.68 6 -5 6 C-4.67 5.01 -4.34 4.02 -4 3 C-1.9375 1.3125 -1.9375 1.3125 0 0 Z " fill="#021825" transform="translate(193,184)"/>
<path d="M0 0 C0.66 0.33 1.32 0.66 2 1 C2 2.32 2 3.64 2 5 C2.66 5 3.32 5 4 5 C4.05785647 8.95827235 4.09354717 12.9164367 4.125 16.875 C4.14175781 18.00292969 4.15851563 19.13085938 4.17578125 20.29296875 C4.18222656 21.36933594 4.18867188 22.44570313 4.1953125 23.5546875 C4.20578613 24.54968262 4.21625977 25.54467773 4.22705078 26.56982422 C3.9551565 29.4799701 2.98793712 30.01206288 1 32 C0.2884375 32.7734375 0.2884375 32.7734375 -0.4375 33.5625 C-2 35 -2 35 -4 35 C-3.7525 34.071875 -3.7525 34.071875 -3.5 33.125 C-2.95225139 30.79706843 -3.00270075 28.89196987 -3.0625 26.5 C-3 24 -3 24 -2 22 C-2.23609761 19.90884971 -2.47655436 17.81807279 -2.7421875 15.73046875 C-3.20494411 10.82945559 -3.07488852 5.91767944 -3 1 C-2.01 0.67 -1.02 0.34 0 0 Z " fill="#04ABEC" transform="translate(378,235)"/>
<path d="M0 0 C5.625 -0.25 5.625 -0.25 9 2 C9 2.99 9 3.98 9 5 C10.65 5 12.3 5 14 5 C14 5.66 14 6.32 14 7 C14.763125 7.12375 15.52625 7.2475 16.3125 7.375 C19 8 19 8 22 10 C22.33 10.99 22.66 11.98 23 13 C23.99 13.33 24.98 13.66 26 14 C26 14.99 26 15.98 26 17 C26.66 17.33 27.32 17.66 28 18 C26.02 18.33 24.04 18.66 22 19 C21.34 17.68 20.68 16.36 20 15 C19.47535156 15.24234375 18.95070313 15.4846875 18.41015625 15.734375 C14.74170082 16.13867803 12.38772702 14.18805689 9.4375 12.25 C8.86064453 11.8890625 8.28378906 11.528125 7.68945312 11.15625 C4.82141143 9.33023038 2.3295784 7.47099051 0 5 C-0.66 4.67 -1.32 4.34 -2 4 C-1.34 2.68 -0.68 1.36 0 0 Z " fill="#02ACEE" transform="translate(306,133)"/>
<path d="M0 0 C0.66 0 1.32 0 2 0 C2.12117187 0.90621094 2.24234375 1.81242188 2.3671875 2.74609375 C3.69510684 18.35960985 3.69510684 18.35960985 12.16796875 30.7109375 C14.74112975 32.53808128 17.35352603 34.28095606 20 36 C34.78433633 45.7707207 34.78433633 45.7707207 37 53 C37.39926877 55.86910876 37.42128535 58.66966532 37.375 61.5625 C37.38660156 62.29146484 37.39820313 63.02042969 37.41015625 63.77148438 C37.38421822 68.57434243 36.51727096 71.78457006 34 76 C33.06576355 72.98968256 32.95550089 72.13349732 34 69 C34.66 69 35.32 69 36 69 C35.67 62.73 35.34 56.46 35 50 C34.01 49.67 33.02 49.34 32 49 C31.443125 48.4225 30.88625 47.845 30.3125 47.25 C25.29309243 42.3662521 19.78368075 39.55459351 13 38 C12.67 36.35 12.34 34.7 12 33 C11.236875 32.95875 10.47375 32.9175 9.6875 32.875 C7 32 7 32 5.375 29.75 C2.01112559 20.57579706 0.47188589 11.76033117 1 2 C0.34 1.67 -0.32 1.34 -1 1 C-0.67 0.67 -0.34 0.34 0 0 Z " fill="#178EAE" transform="translate(243,195)"/>
<path d="M0 0 C0.66 0.33 1.32 0.66 2 1 C-1.56430755 4.14985318 -4.40693504 6.5140084 -9 8 C-6.4345406 10.5654594 -4.52313332 10.54046087 -1 11 C-11.69919492 19.49064551 -28.44319756 24.64152686 -42 25 C-36.62485425 22.25475389 -32.11274702 20.70891681 -26 21 C-26 20.34 -26 19.68 -26 19 C-24.35 18.67 -22.7 18.34 -21 18 C-20.67 15.69 -20.34 13.38 -20 11 C-18.35 10.67 -16.7 10.34 -15 10 C-15 9.34 -15 8.68 -15 8 C-12.54665445 6.63603538 -10.08808766 5.28365831 -7.625 3.9375 C-6.92632812 3.54755859 -6.22765625 3.15761719 -5.5078125 2.75585938 C-3.70389816 1.77584822 -1.85416518 0.88124929 0 0 Z " fill="#03ACEE" transform="translate(314,356)"/>
<path d="M0 0 C0 1.65 0 3.3 0 5 C0.99 5.33 1.98 5.66 3 6 C4.61944896 9.68056581 4.12669105 14.07257739 4 18 C3.67 18.66 3.34 19.32 3 20 C3.66 20 4.32 20 5 20 C5 21.32 5 22.64 5 24 C4.360625 24.103125 3.72125 24.20625 3.0625 24.3125 C2.381875 24.539375 1.70125 24.76625 1 25 C0.67 25.99 0.34 26.98 0 28 C-0.33 28 -0.66 28 -1 28 C-3.1123498 19.71767933 -4.62129948 12.47763822 -3 4 C-3.99 4 -4.98 4 -6 4 C-5.67 3.01 -5.34 2.02 -5 1 C-3 0 -3 0 0 0 Z " fill="#03ACEE" transform="translate(373,202)"/>
<path d="M0 0 C1.20226256 3.60678768 0.75698659 4.1694669 -0.80859375 7.5 C-1.22254395 8.38276611 -1.63649414 9.26553223 -2.06298828 10.17504883 C-2.74337158 11.57339966 -2.74337158 11.57339966 -3.4375 13 C-4.1178833 14.41671997 -4.1178833 14.41671997 -4.81201172 15.86206055 C-8.23464451 22.82293133 -12.00182972 29.03849523 -17 35 C-17 32.46699941 -16.90181119 30.0213081 -16.6875 27.5 C-16.60048828 26.33984375 -16.60048828 26.33984375 -16.51171875 25.15625 C-15.88913087 22.53282626 -15.18725193 21.56160779 -13 20 C-11.68 20 -10.36 20 -9 20 C-9 19.01 -9 18.02 -9 17 C-8.34 17 -7.68 17 -7 17 C-7.66 14.69 -8.32 12.38 -9 10 C-10.98 10.99 -10.98 10.99 -13 12 C-11.7874262 8.27566618 -10.49140021 4.62197194 -9 1 C-7.68 2.65 -6.36 4.3 -5 6 C-3.68 5.67 -2.36 5.34 -1 5 C-0.67 3.35 -0.34 1.7 0 0 Z " fill="#0DA0DB" transform="translate(374,295)"/>
<path d="M0 0 C0.66 0.33 1.32 0.66 2 1 C1.505 1.45375 1.01 1.9075 0.5 2.375 C-1.22609337 3.87635519 -1.22609337 3.87635519 -1 6 C-0.01 6.66 0.98 7.32 2 8 C2 8.66 2 9.32 2 10 C-6.261959 13.62870159 -6.261959 13.62870159 -11 12 C-11 11.34 -11 10.68 -11 10 C-11.99 9.67 -12.98 9.34 -14 9 C-14 9.66 -14 10.32 -14 11 C-15.423125 11.61875 -15.423125 11.61875 -16.875 12.25 C-20.07852706 13.65955351 -20.07852706 13.65955351 -21.0625 16.125 C-21.371875 16.74375 -21.68125 17.3625 -22 18 C-24.79597286 18.86029934 -27.07171074 19 -30 19 C-22.50850577 12.39091735 -14.44813659 7.55831057 -5.66113281 2.88378906 C-4.31388467 2.16699919 -2.97910572 1.42680687 -1.6484375 0.6796875 C-1.10445312 0.45539063 -0.56046875 0.23109375 0 0 Z " fill="#03AAEA" transform="translate(195,128)"/>
<path d="M0 0 C0.66 0 1.32 0 2 0 C2.17015625 0.75023437 2.3403125 1.50046875 2.515625 2.2734375 C4.79158524 14.0259507 4.79158524 14.0259507 10.98828125 23.796875 C12.93796565 25.24806807 12.93796565 25.24806807 15.25 24.6875 C15.8275 24.460625 16.405 24.23375 17 24 C16.690625 25.299375 16.690625 25.299375 16.375 26.625 C15.95720777 30.38513007 16.65260755 32.51263132 18 36 C18 36.66 18 37.32 18 38 C18.66 38 19.32 38 20 38 C20.66 38.99 21.32 39.98 22 41 C22.495 41.495 22.495 41.495 23 42 C23.04080783 43.99958364 23.04254356 46.00045254 23 48 C18.89525602 44.24152616 16.21979621 40.43322859 13.5625 35.5625 C13.17562012 34.86237793 12.78874023 34.16225586 12.39013672 33.44091797 C0 10.63215361 0 10.63215361 0 0 Z " fill="#139BCF" transform="translate(121,282)"/>
<path d="M0 0 C8.58709848 12.88064772 6.38473866 36.53108447 3.625 51 C2.69070419 55.45442043 1.50572393 59.70541349 0 64 C-0.33 64 -0.66 64 -1 64 C-1.04241723 61.66705225 -1.04092937 59.33297433 -1 57 C-0.505 56.505 -0.505 56.505 0 56 C2.22979241 46.78786492 2.21425586 37.35764791 2.25 27.9375 C2.259104 26.74785645 2.26820801 25.55821289 2.27758789 24.33251953 C2.27364014 23.20056152 2.26969238 22.06860352 2.265625 20.90234375 C2.26224121 19.37855103 2.26224121 19.37855103 2.25878906 17.82397461 C1.98710905 14.8593306 1.17632367 12.71552502 0 10 C-0.1953125 7.32421875 -0.1953125 7.32421875 -0.125 4.6875 C-0.10695313 3.80449219 -0.08890625 2.92148438 -0.0703125 2.01171875 C-0.04710937 1.34785156 -0.02390625 0.68398437 0 0 Z " fill="#012332" transform="translate(333,222)"/>
<path d="M0 0 C3.44220601 3.11660002 4.60241384 6.75622293 6.0625 11.0625 C6.32562988 11.82167725 6.58875977 12.58085449 6.85986328 13.36303711 C8.72076025 18.85625057 10.0894933 24.26380777 11 30 C11.66 30 12.32 30 13 30 C13.66 31.98 14.32 33.96 15 36 C19.455 35.505 19.455 35.505 24 35 C23.34 36.32 22.68 37.64 22 39 C18.7 39 15.4 39 12 39 C12 37.35 12 35.7 12 34 C11.34 34 10.68 34 10 34 C10 32.68 10 31.36 10 30 C9.34 30 8.68 30 8 30 C6.94704222 25.86338014 5.95072597 21.75011027 5.125 17.5625 C4.23543269 13.41596849 2.69415126 9.82879212 0.8046875 6.04296875 C0 4 0 4 0 0 Z " fill="#1CAFD7" transform="translate(266,298)"/>
<path d="M0 0 C0.89271417 2.41032827 1.03362068 3.84030177 0.5 6.375 C-1.59449644 10.04036876 -4.45752748 12.7040991 -8 15 C-8.99 15 -9.98 15 -11 15 C-11 17.31 -11 19.62 -11 22 C-10.34 22 -9.68 22 -9 22 C-8.30030318 24.24623699 -7.61564957 26.49716414 -6.9375 28.75 C-6.55464844 30.00296875 -6.17179687 31.2559375 -5.77734375 32.546875 C-5.07343172 35.6738008 -4.83346215 37.09466046 -6 40 C-13.45035652 21.73077469 -13.45035652 21.73077469 -15 15 C-14.01 14.67 -13.02 14.34 -12 14 C-12 13.34 -12 12.68 -12 12 C-10.63875 11.1028125 -10.63875 11.1028125 -9.25 10.1875 C-5.0627039 7.36912762 -2.76988548 4.15482822 0 0 Z " fill="#011A2A" transform="translate(277,270)"/>
<path d="M0 0 C4.82829428 1.48700714 7.7487769 4.21283256 11.3125 7.625 C12.13717773 8.3984375 12.13717773 8.3984375 12.97851562 9.1875 C14.32498054 10.45200618 15.66332535 11.72514922 17 13 C15 14 15 14 11 14 C10.67 13.34 10.34 12.68 10 12 C9.34 12.66 8.68 13.32 8 14 C3.05971108 13.85884889 -0.2627712 10.9187003 -4 8 C-3.67 7.01 -3.34 6.02 -3 5 C-1.68 5.66 -0.36 6.32 1 7 C1 7.66 1 8.32 1 9 C2.32 8.67 3.64 8.34 5 8 C5 7.01 5 6.02 5 5 C3.68 4.67 2.36 4.34 1 4 C0.67 2.68 0.34 1.36 0 0 Z " fill="#08A1E0" transform="translate(327,142)"/>
<path d="M0 0 C1.8871875 0.0309375 1.8871875 0.0309375 3.8125 0.0625 C3.8125 0.7225 3.8125 1.3825 3.8125 2.0625 C2.75675781 2.26552734 2.75675781 2.26552734 1.6796875 2.47265625 C-9.96188354 5.01070111 -20.17155091 9.93580253 -29.34375 17.55078125 C-31.49147922 19.3117372 -33.75409793 20.7280537 -36.1875 22.0625 C-35.8575 20.7425 -35.5275 19.4225 -35.1875 18.0625 C-34.1975 18.0625 -33.2075 18.0625 -32.1875 18.0625 C-32.1875 17.4025 -32.1875 16.7425 -32.1875 16.0625 C-31.5275 16.0625 -30.8675 16.0625 -30.1875 16.0625 C-29.8575 15.0725 -29.5275 14.0825 -29.1875 13.0625 C-28.1975 13.0625 -27.2075 13.0625 -26.1875 13.0625 C-26.1875 12.0725 -26.1875 11.0825 -26.1875 10.0625 C-22.45194569 7.07405655 -18.13704466 6.08333745 -13.58984375 4.90625 C-10.99912558 3.99633923 -9.33736515 2.74305987 -7.1875 1.0625 C-4.43671116 0.14557039 -2.82801087 -0.04636083 0 0 Z " fill="#1CB6DC" transform="translate(224.1875,165.9375)"/>
<path d="M0 0 C0.74523926 0.00016113 1.49047852 0.00032227 2.25830078 0.00048828 C4.47771399 -0.00381013 6.69501178 -0.03989119 8.9140625 -0.078125 C17.45850345 -0.14444821 24.6628376 0.73067032 32.83300781 3.41162109 C35.7148173 4.42390923 35.7148173 4.42390923 38.54199219 4.87353516 C40.77734375 5.37109375 40.77734375 5.37109375 42.77734375 7.37109375 C44.76090858 8.08517709 46.76049812 8.75727117 48.77734375 9.37109375 C48.77734375 10.03109375 48.77734375 10.69109375 48.77734375 11.37109375 C49.43734375 11.37109375 50.09734375 11.37109375 50.77734375 11.37109375 C50.77734375 12.03109375 50.77734375 12.69109375 50.77734375 13.37109375 C46.99215091 12.27538003 43.71446146 10.81663514 40.27734375 8.93359375 C34.9378959 6.1743364 29.56273237 5.04836206 23.68359375 3.94921875 C20.77734375 3.37109375 20.77734375 3.37109375 18.77734375 2.37109375 C16.36895697 2.28469506 13.99000494 2.25541611 11.58203125 2.2734375 C10.87458771 2.27485245 10.16714417 2.2762674 9.43826294 2.27772522 C7.17624706 2.28332775 4.91432977 2.29588057 2.65234375 2.30859375 C1.1197931 2.31360843 -0.41275911 2.31817139 -1.9453125 2.32226562 C-5.70446513 2.33329798 -9.46354397 2.35056423 -13.22265625 2.37109375 C-9.75453655 -1.09702595 -4.68782851 0.03206905 0 0 Z " fill="#1F94B4" transform="translate(245.22265625,163.62890625)"/>
<path d="M0 0 C6.28312702 -0.19946435 11.95844718 0.15247157 18 2 C18.33 2.33 18.66 2.66 19 3 C32.78360048 5.00443741 47.11947697 4.09380682 61 4 C61 4.33 61 4.66 61 5 C53.84375051 6.13058999 46.85730941 6.23302799 39.625 6.25 C38.62338333 6.25250763 38.62338333 6.25250763 37.60153198 6.25506592 C24.47356417 6.25703617 12.59859681 4.70073725 0 1 C0 0.67 0 0.34 0 0 Z " fill="#2497C8" transform="translate(211,377)"/>
<path d="M0 0 C4.85531437 3.69426093 8.60100849 7.76134052 12.3125 12.5625 C12.960979 13.39334106 12.960979 13.39334106 13.62255859 14.2409668 C15.98553199 17.36044505 17.74876254 20.28776509 19 24 C17.68 23.67 16.36 23.34 15 23 C15 22.34 15 21.68 15 21 C14.360625 20.896875 13.72125 20.79375 13.0625 20.6875 C12.0415625 20.3471875 12.0415625 20.3471875 11 20 C10.67 19.01 10.34 18.02 10 17 C10.33 16.67 10.66 16.34 11 16 C9.68 14.68 8.36 13.36 7 12 C6.67 13.65 6.34 15.3 6 17 C4 15.1875 4 15.1875 2 13 C2 12.01 2 11.02 2 10 C2.66 9.67 3.32 9.34 4 9 C3.525625 8.071875 3.05125 7.14375 2.5625 6.1875 C1 3 1 3 0 0 Z " fill="#0C9FD9" transform="translate(344,156)"/>
<path d="M0 0 C2 0 2 0 3.5625 1.3125 C5 3 5 3 6 6 C6.66 6.33 7.32 6.66 8 7 C8.474375 8.155 8.94875 9.31 9.4375 10.5 C9.953125 11.655 10.46875 12.81 11 14 C11.99 14.33 12.98 14.66 14 15 C15.52160014 18.6037898 16 21.05220686 16 25 C16.66 25 17.32 25 18 25 C19.823321 31.15370839 20.2361959 36.59646678 20 43 C19.67 43 19.34 43 19 43 C18.896875 42.01 18.79375 41.02 18.6875 40 C18.18320381 36.35126876 17.03712981 33.18452108 15.62109375 29.796875 C15 28 15 28 15 25 C14.34 25 13.68 25 13 25 C12.78085937 24.39414063 12.56171875 23.78828125 12.3359375 23.1640625 C9.8650089 16.63518613 6.71479488 10.89414121 3 5 C1.9965784 3.33539108 0.99565181 1.66926788 0 0 Z " fill="#1BB1D7" transform="translate(319,197)"/>
<path d="M0 0 C1.25748047 -0.01224609 2.51496094 -0.02449219 3.81054688 -0.03710938 C5.6271582 -0.04000977 5.6271582 -0.04000977 7.48046875 -0.04296875 C9.12438599 -0.04913208 9.12438599 -0.04913208 10.80151367 -0.05541992 C13.88329918 0.19321193 16.00604828 0.94331728 18.8125 2.1875 C20.8049325 2.56343066 22.8043674 2.90729545 24.8125 3.1875 C24.8125 3.5175 24.8125 3.8475 24.8125 4.1875 C23.04175083 4.21455729 21.27088289 4.23392195 19.5 4.25 C18.51386719 4.26160156 17.52773438 4.27320313 16.51171875 4.28515625 C13.8125 4.1875 13.8125 4.1875 10.8125 3.1875 C8.29881945 3.1028183 5.81380626 3.07148115 3.30078125 3.08984375 C2.20844429 3.09196617 2.20844429 3.09196617 1.09403992 3.09413147 C-1.22901539 3.09972341 -3.55197388 3.11227438 -5.875 3.125 C-7.45117048 3.13001604 -9.02734248 3.13457877 -10.60351562 3.13867188 C-14.46488098 3.1496902 -18.32617408 3.16694926 -22.1875 3.1875 C-22.1875 2.5275 -22.1875 1.8675 -22.1875 1.1875 C-14.79343915 0.02782923 -7.47387396 0.00386646 0 0 Z " fill="#012E42" transform="translate(250.1875,164.8125)"/>
<path d="M0 0 C1.37432457 3.81756824 0.67975039 7.07255329 0 11 C-0.66 11 -1.32 11 -2 11 C-2.03738281 11.73605469 -2.07476562 12.47210938 -2.11328125 13.23046875 C-2.7806841 23.13682093 -2.7806841 23.13682093 -6 27 C-6.66 27.33 -7.32 27.66 -8 28 C-8.72159424 29.64363134 -9.39351421 31.31050386 -10 33 C-10.66 33 -11.32 33 -12 33 C-10.4061554 26.74896409 -8.64145939 20.88325047 -6 15 C-5.62691369 13.67723944 -5.26953585 12.34767923 -5 11 C-4.34 11 -3.68 11 -3 11 C-2.86722656 10.37351562 -2.73445312 9.74703125 -2.59765625 9.1015625 C-2.42105469 8.28429687 -2.24445313 7.46703125 -2.0625 6.625 C-1.88847656 5.81289063 -1.71445313 5.00078125 -1.53515625 4.1640625 C-1 2 -1 2 0 0 Z " fill="#16BCE9" transform="translate(231,301)"/>
<path d="M0 0 C4.41609747 4.41609747 4.50924304 10.07217251 5 16 C1 16 1 16 -1.125 14.875 C-3.51738545 12.48261455 -4.1381848 10.23180698 -5 7 C-4.34 7 -3.68 7 -3 7 C-3 5.68 -3 4.36 -3 3 C-2.01 3 -1.02 3 0 3 C0 2.01 0 1.02 0 0 Z " fill="#03AAEB" transform="translate(132,291)"/>
<path d="M0 0 C0 0.66 0 1.32 0 2 C6.93 2.495 6.93 2.495 14 3 C14 3.33 14 3.66 14 4 C13.10168457 4.02505615 12.20336914 4.0501123 11.27783203 4.07592773 C7.94925131 4.17098693 4.62085006 4.27022421 1.29248047 4.37231445 C-0.1488762 4.41566231 -1.59028418 4.45733752 -3.03173828 4.49731445 C-5.10204541 4.55502088 -7.17209432 4.61871371 -9.2421875 4.68359375 C-10.4885498 4.72025146 -11.73491211 4.75690918 -13.01904297 4.79467773 C-15.92636942 4.80289479 -15.92636942 4.80289479 -18 6 C-19.70702735 6.06996014 -21.41668003 6.08440154 -23.125 6.0625 C-24.03507813 6.05347656 -24.94515625 6.04445312 -25.8828125 6.03515625 C-26.58148438 6.02355469 -27.28015625 6.01195312 -28 6 C-28 5.67 -28 5.34 -28 5 C-23.39964999 3.34674922 -18.79743443 2.25873792 -14 1.375 C-13.31421875 1.2409375 -12.6284375 1.106875 -11.921875 0.96875 C-7.89451207 0.2155409 -4.09428772 -0.14074114 0 0 Z " fill="#12C0ED" transform="translate(250,160)"/>
<path d="M0 0 C0.33 0.99 0.66 1.98 1 3 C0.01 3.33 -0.98 3.66 -2 4 C-2 4.99 -2 5.98 -2 7 C-3.65 7.33 -5.3 7.66 -7 8 C-7.33 9.32 -7.66 10.64 -8 12 C-13.53846154 12.36923077 -13.53846154 12.36923077 -15.875 10.5 C-16.24625 10.005 -16.6175 9.51 -17 9 C-16.34 8.34 -15.68 7.68 -15 7 C-13.68 7 -12.36 7 -11 7 C-10.67 6.34 -10.34 5.68 -10 5 C-6.75395419 2.02445801 -4.40147657 0.50302589 0 0 Z " fill="#03ACEF" transform="translate(321,355)"/>
<path d="M0 0 C0.33 0.66 0.66 1.32 1 2 C0.0390625 4.13671875 0.0390625 4.13671875 -1.375 6.6875 C-3.60249899 10.93887618 -4.68912695 14.23327995 -5 19 C-5.66 19 -6.32 19 -7 19 C-7.33 21.97 -7.66 24.94 -8 28 C-8.99 28.33 -9.98 28.66 -11 29 C-11.12117188 29.74765625 -11.24234375 30.4953125 -11.3671875 31.265625 C-11.53476563 32.25046875 -11.70234375 33.2353125 -11.875 34.25 C-12.03742188 35.22453125 -12.19984375 36.1990625 -12.3671875 37.203125 C-12.94855848 39.77264117 -13.70840265 41.72071056 -15 44 C-14.49041311 28.20280654 -7.34703429 13.68711464 0 0 Z " fill="#1E93C6" transform="translate(134,184)"/>
<path d="M0 0 C5.445 1.485 5.445 1.485 11 3 C11.33 4.32 11.66 5.64 12 7 C14.06438421 8.35252759 15.77076903 8.95415381 18.1875 9.4375 C18.785625 9.623125 19.38375 9.80875 20 10 C21 13 21 13 20 16 C20.66 16 21.32 16 22 16 C22.33 17.32 22.66 18.64 23 20 C19.43016192 18.26916941 17.18862559 16.1877034 14.6875 13.1875 C11.70966807 9.64277227 8.58504789 6.96836343 4.796875 4.32421875 C3 3 3 3 0 0 Z " fill="#189FC1" transform="translate(296,177)"/>
<path d="M0 0 C1.32 0 2.64 0 4 0 C4 1.32 4 2.64 4 4 C5.32 4 6.64 4 8 4 C8 5.32 8 6.64 8 8 C10.31 8 12.62 8 15 8 C15.33 8.66 15.66 9.32 16 10 C15.67 10.66 15.34 11.32 15 12 C15.9075 12.226875 16.815 12.45375 17.75 12.6875 C21.44888324 14.18127977 22.77905658 15.75400577 25 19 C17.17812466 19 9.36791145 10.85830836 3.77734375 5.89453125 C2.01518164 4.01618263 1.00795862 2.35538517 0 0 Z " fill="#022B3E" transform="translate(184,312)"/>
<path d="M0 0 C0.99 0 1.98 0 3 0 C5.11161731 15.74487472 5.11161731 15.74487472 6 23 C5.34 21.68 4.68 20.36 4 19 C3.34 19 2.68 19 2 19 C1.34 15.04 0.68 11.08 0 7 C-1.65 7.66 -3.3 8.32 -5 9 C-4.42636089 5.12793601 -2.65894107 2.81534937 0 0 Z " fill="#1FB2D9" transform="translate(241,197)"/>
<path d="M0 0 C1.670625 0.061875 1.670625 0.061875 3.375 0.125 C-7.32419492 8.61564551 -24.06819756 13.76652686 -37.625 14.125 C-32.24985425 11.37975389 -27.73774702 9.83391681 -21.625 10.125 C-21.625 9.465 -21.625 8.805 -21.625 8.125 C-19.645 8.125 -17.665 8.125 -15.625 8.125 C-15.625 7.465 -15.625 6.805 -15.625 6.125 C-12.00526598 4.80873308 -9.52932869 4.125 -5.625 4.125 C-5.625 3.465 -5.625 2.805 -5.625 2.125 C-3.625 0.125 -3.625 0.125 0 0 Z " fill="#2394C4" transform="translate(309.625,366.875)"/>
<path d="M0 0 C2.72106933 5.44213866 -0.53449536 13.31460809 -2.28125 18.73828125 C-3.51669294 22.6258979 -4.15000168 26.11432701 -4.31640625 30.203125 C-4.35830078 31.1828125 -4.40019531 32.1625 -4.44335938 33.171875 C-4.48267578 34.18765625 -4.52199219 35.2034375 -4.5625 36.25 C-4.60568359 37.28125 -4.64886719 38.3125 -4.69335938 39.375 C-4.79925682 41.9165387 -4.90133443 44.45817196 -5 47 C-5.33 47 -5.66 47 -6 47 C-6.04962653 42.96154588 -6.08582632 38.92321113 -6.10986328 34.88452148 C-6.11988926 33.51209417 -6.13351356 32.13968805 -6.15087891 30.76733398 C-6.17527627 28.78899473 -6.18544484 26.81049633 -6.1953125 24.83203125 C-6.20578613 23.64327393 -6.21625977 22.4545166 -6.22705078 21.22973633 C-6.00140573 18.01999617 -5.32959121 15.89947751 -4 13 C-3.44946976 10.9243166 -2.92920722 8.84039928 -2.4375 6.75 C-1.11004785 1.11004785 -1.11004785 1.11004785 0 0 Z " fill="#064458" transform="translate(167,219)"/>
<path d="M0 0 C0.33 0.66 0.66 1.32 1 2 C-0.92962212 6.18084793 -3.06505131 7.78028536 -7 10 C-7.99 11.485 -7.99 11.485 -9 13 C-11.0234375 14.203125 -11.0234375 14.203125 -13.375 15.25 C-14.14585937 15.60578125 -14.91671875 15.9615625 -15.7109375 16.328125 C-18.30179788 17.08858231 -19.46330937 16.74039616 -22 16 C-20.99839844 15.34773438 -19.99679687 14.69546875 -18.96484375 14.0234375 C-12.32435979 9.66757341 -5.8417035 5.41426178 0 0 Z " fill="#1B9EC1" transform="translate(312,316)"/>
<path d="M0 0 C0.33 0 0.66 0 1 0 C1.03738281 1.14855469 1.07476562 2.29710937 1.11328125 3.48046875 C1.45284594 11.99903342 2.20126789 19.85545678 4.3671875 28.140625 C5.26335117 32.18995716 5.20998377 35.87031922 5 40 C-1.39465438 32.413326 -0.26794078 21.19711202 -0.125 11.8125 C-0.11597656 10.66974609 -0.10695312 9.52699219 -0.09765625 8.34960938 C-0.07436393 5.5661769 -0.04165999 2.78320771 0 0 Z " fill="#011B2C" transform="translate(162,244)"/>
<path d="M0 0 C0.66 0.33 1.32 0.66 2 1 C1.0925 1.680625 0.185 2.36125 -0.75 3.0625 C-4.22606221 5.92901576 -5.96564882 9.00954191 -8 13 C-8.66 13 -9.32 13 -10 13 C-10.18175781 13.56847656 -10.36351562 14.13695312 -10.55078125 14.72265625 C-12.14084634 19.60701003 -13.90459778 24.31029027 -16 29 C-16.33 29 -16.66 29 -17 29 C-17 25.7 -17 22.4 -17 19 C-16.01 18.67 -15.02 18.34 -14 18 C-12.87914688 15.6569191 -12.87914688 15.6569191 -12 13 C-10.59815111 9.72901926 -10.11729845 9.07819897 -7 7 C-6.67 6.01 -6.34 5.02 -6 4 C-3.5 2.375 -3.5 2.375 -1 1 C-0.67 0.67 -0.34 0.34 0 0 Z " fill="#022A3B" transform="translate(237,200)"/>
<path d="M0 0 C0.66 0.33 1.32 0.66 2 1 C0.92807816 2.3218362 -0.15802695 3.63217927 -1.25 4.9375 C-1.85328125 5.66839844 -2.4565625 6.39929688 -3.078125 7.15234375 C-5.10741134 9.10326334 -6.254407 9.61731779 -9 10 C-9 10.66 -9 11.32 -9 12 C-9.99 12.495 -9.99 12.495 -11 13 C-10.11223998 16.69900008 -9.05418136 20.34550461 -8 24 C-10.64764046 21.60451577 -12.51720436 19.26215041 -14 16 C-13.9375 12.3125 -13.9375 12.3125 -13 9 C-10.4664092 7.05758039 -9.21812786 7 -6 7 C-6 6.01 -6 5.02 -6 4 C-5.01 4 -4.02 4 -3 4 C-3 3.34 -3 2.68 -3 2 C-2.01 2 -1.02 2 0 2 C0 1.34 0 0.68 0 0 Z " fill="#1AA4C7" transform="translate(274,272)"/>
<path d="M0 0 C0.33 0 0.66 0 1 0 C1.0093457 0.60884033 1.01869141 1.21768066 1.02832031 1.8449707 C1.05673849 16.89600642 1.05673849 16.89600642 5.2578125 31.171875 C5.50273437 31.77515625 5.74765625 32.3784375 6 33 C5.67 33.66 5.34 34.32 5 35 C4.67 33.68 4.34 32.36 4 31 C3.01 31 2.02 31 1 31 C-0.76742947 24.26167513 -1.19270772 17.92952672 -1.1875 11 C-1.18814453 10.15074951 -1.18878906 9.30149902 -1.18945312 8.42651367 C-1.13494227 2.26988454 -1.13494227 2.26988454 0 0 Z " fill="#064159" transform="translate(218,238)"/>
<path d="M0 0 C0.33 0.66 0.66 1.32 1 2 C1.66 2 2.32 2 3 2 C4.17118301 3.68449748 5.26242662 5.42495999 6.3125 7.1875 C10.58477268 14.07598915 15.84845523 18.84121173 22 24 C20 25 20 25 17.5625 24.4375 C14.19734692 22.5497312 13.61466433 20.43993705 12 17 C10.69855198 15.95884159 9.37202131 14.94622159 8 14 C8 13.34 8 12.68 8 12 C7.01 12 6.02 12 5 12 C5 11.34 5 10.68 5 10 C4.34 10 3.68 10 3 10 C3 8.68 3 7.36 3 6 C2.34 6 1.68 6 1 6 C0.67 4.02 0.34 2.04 0 0 Z " fill="#1D9EC4" transform="translate(172,298)"/>
<path d="M0 0 C0 0.33 0 0.66 0 1 C-1.08539063 1.18175781 -2.17078125 1.36351563 -3.2890625 1.55078125 C-4.73446137 1.80419534 -6.17976918 2.05812925 -7.625 2.3125 C-8.33785156 2.43044922 -9.05070312 2.54839844 -9.78515625 2.66992188 C-14.34728455 3.48608244 -17.84990107 4.86809986 -22 7 C-25 7.6953125 -25 7.6953125 -28 8.125 C-29.485 8.34542969 -29.485 8.34542969 -31 8.5703125 C-31.99 8.71210937 -32.98 8.85390625 -34 9 C-36.00074595 9.3288263 -38.00097316 9.66087938 -40 10 C-29.4536696 2.96911306 -12.49318315 -0.74959099 0 0 Z " fill="#1895C6" transform="translate(237,118)"/>
<path d="M0 0 C0.99 0 1.98 0 3 0 C5.5915262 5.93891422 6.40368295 10.54107286 6 17 C5.34 17 4.68 17 4 17 C4 20.63 4 24.26 4 28 C3.01 28.33 2.02 28.66 1 29 C1.24169922 28.02160156 1.24169922 28.02160156 1.48828125 27.0234375 C2.13264775 23.21626444 2.18413557 19.47390267 2.1875 15.625 C2.19974609 14.89539063 2.21199219 14.16578125 2.22460938 13.4140625 C2.2375925 8.56702885 1.53535264 4.59998934 0 0 Z " fill="#001C2E" transform="translate(277,241)"/>
<path d="M0 0 C0.33 0.66 0.66 1.32 1 2 C-2.02737019 8.36499882 -5.59568777 14.41452296 -11 19 C-10.68817931 17.58318366 -10.37551263 16.16655349 -10.0625 14.75 C-9.88847656 13.96109375 -9.71445312 13.1721875 -9.53515625 12.359375 C-9.35855469 11.58078125 -9.18195313 10.8021875 -9 10 C-8.85433594 9.28328125 -8.70867187 8.5665625 -8.55859375 7.828125 C-8 6 -8 6 -6 4 C-4.68 4 -3.36 4 -2 4 C-2 3.01 -2 2.02 -2 1 C-1.34 0.67 -0.68 0.34 0 0 Z " fill="#139BD1" transform="translate(367,311)"/>
<path d="M0 0 C1.37302582 4.11907746 0.74706646 6.72134667 0 11 C-0.66 11.66 -1.32 12.32 -2 13 C-2.64767793 15.57061311 -2.64767793 15.57061311 -3 18 C-3.99 17.34 -4.98 16.68 -6 16 C-5.40836381 11.16830444 -4.62343024 6.59971901 -3 2 C-2.01 1.34 -1.02 0.68 0 0 Z " fill="#02ADEF" transform="translate(373,284)"/>
<path d="M0 0 C0.66 0 1.32 0 2 0 C2.14285714 7.42857143 2.14285714 7.42857143 1 11 C0.34 11 -0.32 11 -1 11 C-1 11.99 -1 12.98 -1 14 C-2.32 14 -3.64 14 -5 14 C-5.33 14.99 -5.66 15.98 -6 17 C-5.32829194 13.1936543 -4.27253436 9.64793184 -3 6 C-2.34 6 -1.68 6 -1 6 C-0.67 4.02 -0.34 2.04 0 0 Z " fill="#11BAE9" transform="translate(238,284)"/>
<path d="M0 0 C0.99 0.33 1.98 0.66 3 1 C4.00926479 5.15626368 4.10239579 9.04365094 4.0625 13.3125 C4.05347656 14.56675781 4.04445313 15.82101562 4.03515625 17.11328125 C4.01775391 18.54220703 4.01775391 18.54220703 4 20 C3.34 20 2.68 20 2 20 C1.67 22.64 1.34 25.28 1 28 C0.34 28 -0.32 28 -1 28 C-1.33 28.66 -1.66 29.32 -2 30 C-1.52607967 27.31445148 -0.95302957 24.87376696 0 22.3125 C2.34789336 14.53510323 2.27117452 7.77079548 0 0 Z " fill="#19BCE3" transform="translate(275,244)"/>
<path d="M0 0 C6.19880467 0.43199634 10.25264357 1.80260797 15.5 5.0625 C16.13164062 5.43955078 16.76328125 5.81660156 17.4140625 6.20507812 C18.95014734 7.12440163 20.47619482 8.06046282 22 9 C21.67 9.66 21.34 10.32 21 11 C20.01 11 19.02 11 18 11 C17.34 10.01 16.68 9.02 16 8 C13.94074861 7.27617533 13.94074861 7.27617533 12 7 C12 6.34 12 5.68 12 5 C10.948125 4.87625 9.89625 4.7525 8.8125 4.625 C5.54041229 4.08859218 2.99463924 3.36119965 0 2 C0 1.34 0 0.68 0 0 Z " fill="#012436" transform="translate(275,169)"/>
<path d="M0 0 C3.43544209 1.92384757 6.75383403 3.83076089 10 6.0625 C14.79538489 9.15951941 19.18259817 11.52885471 25 11 C25 11.66 25 12.32 25 13 C22.36 13 19.72 13 17 13 C17 12.34 17 11.68 17 11 C16.236875 10.87625 15.47375 10.7525 14.6875 10.625 C12 10 12 10 9 8 C6.67891331 7.29187186 4.34622853 6.61975848 2 6 C2 4.68 2 3.36 2 2 C1.34 2 0.68 2 0 2 C0 1.34 0 0.68 0 0 Z " fill="#1C9ABF" transform="translate(194,323)"/>
<path d="M0 0 C2.11436125 3.17154188 2.53870614 5.11468383 3.25 8.8125 C4.67763819 15.39590929 7.00751631 21.10646512 9.79296875 27.19921875 C11 30 11 30 11 32 C10.01 31.67 9.02 31.34 8 31 C3.12214374 21.14296702 0.84724438 10.88040146 0 0 Z " fill="#2096B9" transform="translate(161,266)"/>
<path d="M0 0 C4.21814817 3.9700218 7.61227103 8.30840284 11 13 C10.67 13.66 10.34 14.32 10 15 C9.01 14.67 8.02 14.34 7 14 C7 13.34 7 12.68 7 12 C6.0409375 11.8453125 6.0409375 11.8453125 5.0625 11.6875 C4.381875 11.460625 3.70125 11.23375 3 11 C2.67 10.01 2.34 9.02 2 8 C2.33 7.67 2.66 7.34 3 7 C2.505 6.5875 2.01 6.175 1.5 5.75 C0 4 0 4 0 0 Z " fill="#119BD7" transform="translate(352,165)"/>
<path d="M0 0 C1.32 0.33 2.64 0.66 4 1 C2.27427512 2.44163007 0.5442653 3.87813165 -1.1875 5.3125 C-2.63189453 6.51326172 -2.63189453 6.51326172 -4.10546875 7.73828125 C-10.83937824 13 -10.83937824 13 -14 13 C-14 12.34 -14 11.68 -14 11 C-13.01 11 -12.02 11 -11 11 C-11 10.01 -11 9.02 -11 8 C-9.75 6.25 -9.75 6.25 -8 5 C-5.8125 5.3125 -5.8125 5.3125 -4 6 C-3.67 5.01 -3.34 4.02 -3 3 C-2.01 3 -1.02 3 0 3 C0 2.01 0 1.02 0 0 Z " fill="#011C2C" transform="translate(308,316)"/>
<path d="M0 0 C0.703125 1.67578125 0.703125 1.67578125 1 4 C-0.328125 6.54296875 -0.328125 6.54296875 -2.25 9.1875 C-2.87390625 10.06792969 -3.4978125 10.94835937 -4.140625 11.85546875 C-6 14 -6 14 -9 15 C-9 15.66 -9 16.32 -9 17 C-9.99 16.67 -10.98 16.34 -12 16 C-11.46890625 15.34773438 -10.9378125 14.69546875 -10.390625 14.0234375 C-6.7080143 9.46721477 -3.1294384 4.95494413 0 0 Z " fill="#1E98BA" transform="translate(325,299)"/>
<path d="M0 0 C0 0.66 0 1.32 0 2 C-0.76183594 2.17015625 -1.52367187 2.3403125 -2.30859375 2.515625 C-8.91264197 4.06563881 -14.92373512 5.97721166 -21 9 C-21 8.01 -21 7.02 -21 6 C-19.96875 5.566875 -18.9375 5.13375 -17.875 4.6875 C-15.47345859 3.67683127 -13.33495812 2.61795467 -11.0625 1.3125 C-7.09488459 -0.3879066 -4.28688264 -0.22173531 0 0 Z " fill="#1EAACF" transform="translate(228,166)"/>
<path d="M0 0 C1.65 0.33 3.3 0.66 5 1 C3.55575365 4.23861303 1.74227753 6.61969163 -0.625 9.25 C-1.25664062 9.95640625 -1.88828125 10.6628125 -2.5390625 11.390625 C-3.02117187 11.92171875 -3.50328125 12.4528125 -4 13 C-6 9.25 -6 9.25 -6 7 C-1.25 5 -1.25 5 1 5 C0.67 3.35 0.34 1.7 0 0 Z " fill="#02AEEF" transform="translate(156,159)"/>
<path d="M0 0 C0.66 0 1.32 0 2 0 C1.71640113 1.4391134 1.42278601 2.87625518 1.125 4.3125 C0.96257812 5.11300781 0.80015625 5.91351563 0.6328125 6.73828125 C0 9 0 9 -2 12 C-4.9375 11.625 -4.9375 11.625 -8 11 C-8.33 10.34 -8.66 9.68 -9 9 C-7.02 9 -5.04 9 -3 9 C-2.814375 7.329375 -2.814375 7.329375 -2.625 5.625 C-2 2 -2 2 0 0 Z " fill="#011928" transform="translate(220,323)"/>
<path d="M0 0 C0.99 0 1.98 0 3 0 C3 0.66 3 1.32 3 2 C2.34 2 1.68 2 1 2 C0.731875 2.57234375 0.46375 3.1446875 0.1875 3.734375 C-1.04132636 6.07884634 -2.42522176 8.12404938 -4 10.25 C-4.515625 10.95640625 -5.03125 11.6628125 -5.5625 12.390625 C-6.2740625 13.18726563 -6.2740625 13.18726563 -7 14 C-7.66 14 -8.32 14 -9 14 C-9 12.02 -9 10.04 -9 8 C-8.01 8 -7.02 8 -6 8 C-5.67 7.01 -5.34 6.02 -5 5 C-4.34 5 -3.68 5 -3 5 C-3 4.34 -3 3.68 -3 3 C-2.01 3 -1.02 3 0 3 C0 2.01 0 1.02 0 0 Z " fill="#17AFD8" transform="translate(185,188)"/>
<path d="M0 0 C2.60380719 1.11591737 4.06099536 2.06671367 6 4.1875 C6.66 4.785625 7.32 5.38375 8 6 C10.21858253 5.86358623 10.21858253 5.86358623 12 5 C12.28875 5.639375 12.5775 6.27875 12.875 6.9375 C13.82823451 9.15206079 13.82823451 9.15206079 16 10 C15.34 10 14.68 10 14 10 C14 10.66 14 11.32 14 12 C10.31291925 10.42351454 7.70126855 8.12557062 4.75 5.4375 C3.85796875 4.63183594 2.9659375 3.82617188 2.046875 2.99609375 C1.37140625 2.33738281 0.6959375 1.67867188 0 1 C0 0.67 0 0.34 0 0 Z " fill="#169BD2" transform="translate(156,344)"/>
<path d="M0 0 C-2.58789062 1.07421875 -2.58789062 1.07421875 -5.17578125 2.1484375 C-7.26533932 3.06806692 -7.26533932 3.06806692 -10 5 C-12.48046875 5.4140625 -12.48046875 5.4140625 -15.1875 5.625 C-16.08855469 5.69976562 -16.98960937 5.77453125 -17.91796875 5.8515625 C-18.60503906 5.90054688 -19.29210937 5.94953125 -20 6 C-18.61688137 3.23376274 -17.099163 3.04597614 -14.25 1.9375 C-12.95835937 1.42509766 -12.95835937 1.42509766 -11.640625 0.90234375 C-7.46258561 -0.52535906 -4.26450843 -1.42150281 0 0 Z " fill="#043446" transform="translate(228,169)"/>
<path d="M0 0 C2.475 0.495 2.475 0.495 5 1 C5 1.66 5 2.32 5 3 C8.465 2.505 8.465 2.505 12 2 C12 3.32 12 4.64 12 6 C13.32 6.33 14.64 6.66 16 7 C16 7.66 16 8.32 16 9 C10.0942118 7.44584521 5.02261107 4.40465533 0 1 C0 0.67 0 0.34 0 0 Z " fill="#239FD0" transform="translate(177,361)"/>
<path d="M0 0 C0.66 0.33 1.32 0.66 2 1 C2 1.99 2 2.98 2 4 C2.99 3.67 3.98 3.34 5 3 C5.99 3.33 6.98 3.66 8 4 C7.67 5.32 7.34 6.64 7 8 C6.34 8 5.68 8 5 8 C5 7.34 5 6.68 5 6 C2.69 6.33 0.38 6.66 -2 7 C-2.6875 5.1875 -2.6875 5.1875 -3 3 C-1.5625 1.25 -1.5625 1.25 0 0 Z " fill="#02ADF0" transform="translate(184,357)"/>
<path d="M0 0 C0.66 0 1.32 0 2 0 C1.85892253 1.45880109 1.71197585 2.91703551 1.5625 4.375 C1.48128906 5.18710938 1.40007812 5.99921875 1.31640625 6.8359375 C1 9 1 9 0 11 C-0.15004973 12.3734635 -0.24838006 13.7528526 -0.31640625 15.1328125 C-0.37924805 16.34130859 -0.37924805 16.34130859 -0.44335938 17.57421875 C-0.48267578 18.41597656 -0.52199219 19.25773437 -0.5625 20.125 C-0.60568359 20.97449219 -0.64886719 21.82398438 -0.69335938 22.69921875 C-0.79954236 24.79928223 -0.90028497 26.89961948 -1 29 C-1.33 29 -1.66 29 -2 29 C-2.3690205 9.03189066 -2.3690205 9.03189066 0 0 Z " fill="#001621" transform="translate(218,229)"/>
<path d="M0 0 C9.34049959 0.2136081 17.32731315 2.82820764 26 6 C22.37121247 7.20959584 20.8456203 6.65839734 17.1875 5.6875 C16.11757813 5.40519531 15.04765625 5.12289062 13.9453125 4.83203125 C10.92843449 3.97978322 7.96637999 3.01291024 5 2 C3.33911955 1.63893903 1.67381019 1.29537827 0 1 C0 0.67 0 0.34 0 0 Z " fill="#1B92C1" transform="translate(271,119)"/>
<path d="M0 0 C4.32046898 1.41680244 7.00461199 3.53763785 10.3125 6.625 C11.19550781 7.44226563 12.07851563 8.25953125 12.98828125 9.1015625 C13.65214844 9.72804687 14.31601562 10.35453125 15 11 C14.01 11.495 14.01 11.495 13 12 C12.01 11.67 11.02 11.34 10 11 C9.67 10.01 9.34 9.02 9 8 C6.91187542 6.54355243 6.91187542 6.54355243 4.4375 5.3125 C3.61121094 4.87550781 2.78492188 4.43851563 1.93359375 3.98828125 C1.29550781 3.66214844 0.65742188 3.33601562 0 3 C0 2.01 0 1.02 0 0 Z " fill="#002336" transform="translate(297,179)"/>
<path d="M0 0 C1.37432457 3.81756824 0.67975039 7.07255329 0 11 C-0.66 11 -1.32 11 -2 11 C-2.2165625 11.928125 -2.2165625 11.928125 -2.4375 12.875 C-3 15 -3 15 -4 17 C-4.66 17 -5.32 17 -6 17 C-5.67 15.02 -5.34 13.04 -5 11 C-4.34 11 -3.68 11 -3 11 C-2.86722656 10.37351562 -2.73445312 9.74703125 -2.59765625 9.1015625 C-2.33275391 7.87566406 -2.33275391 7.87566406 -2.0625 6.625 C-1.88847656 5.81289063 -1.71445313 5.00078125 -1.53515625 4.1640625 C-1 2 -1 2 0 0 Z " fill="#1B9ABD" transform="translate(231,301)"/>
<path d="M0 0 C0.33 0 0.66 0 1 0 C0.63379732 8.11138929 -1.41540233 15.33035667 -4 23 C-4.33 23 -4.66 23 -5 23 C-5.33 20.69 -5.66 18.38 -6 16 C-5.34 16 -4.68 16 -4 16 C-2.68 10.72 -1.36 5.44 0 0 Z " fill="#1E8FBF" transform="translate(380,272)"/>
<path d="M0 0 C0.66 0.33 1.32 0.66 2 1 C1 3 1 3 -1.9375 4.375 C-5.09137111 5.66877972 -5.09137111 5.66877972 -6.0625 8.125 C-6.371875 8.74375 -6.68125 9.3625 -7 10 C-9.79597286 10.86029934 -12.07171074 11 -15 11 C-13.44066679 9.72528295 -11.87738294 8.45539786 -10.3125 7.1875 C-9.44238281 6.47980469 -8.57226562 5.77210938 -7.67578125 5.04296875 C-5.18274861 3.13952923 -2.79171721 1.43152791 0 0 Z " fill="#1690C4" transform="translate(180,136)"/>
<path d="M0 0 C3.65316671 1.24976756 4.78065836 1.67098753 7 5 C7.33 5.33 7.66 5.66 8 6 C8.04080783 7.99958364 8.04254356 10.00045254 8 12 C4.72257902 8.89973691 2.06895163 6.02901106 0 2 C0 1.34 0 0.68 0 0 Z " fill="#159BD1" transform="translate(136,318)"/>
<path d="M0 0 C3.64475185 1.36350429 6.91244487 3.001464 10.25 5 C11.55710937 5.7734375 11.55710937 5.7734375 12.890625 6.5625 C15 8 15 8 16 10 C13.69 9.34 11.38 8.68 9 8 C9 7.34 9 6.68 9 6 C8.01 6.33 7.02 6.66 6 7 C2.97785139 5.48892569 1.84689022 2.77033533 0 0 Z " fill="#1495C7" transform="translate(311,132)"/>
<path d="M0 0 C0.66 0.33 1.32 0.66 2 1 C1.2884375 1.680625 1.2884375 1.680625 0.5625 2.375 C-1.09027808 3.93258204 -1.09027808 3.93258204 -2 6 C-4.50390625 6.6328125 -4.50390625 6.6328125 -7.5625 7.125 C-9.08037109 7.37636719 -9.08037109 7.37636719 -10.62890625 7.6328125 C-11.80259766 7.81457031 -11.80259766 7.81457031 -13 8 C-10.61664713 5.32561064 -8.12963852 3.84841988 -4.9375 2.25 C-4.05964844 1.80140625 -3.18179688 1.3528125 -2.27734375 0.890625 C-1.52582031 0.59671875 -0.77429688 0.3028125 0 0 Z " fill="#1895C7" transform="translate(195,128)"/>
<path d="M0 0 C2.16874252 0.50603992 3.99967627 0.99983813 6 2 C6.103125 2.7425 6.20625 3.485 6.3125 4.25 C7.2325913 7.9303652 9.2248604 9.5094901 12 12 C11.67 12.66 11.34 13.32 11 14 C9.16056628 12.04709472 7.32840869 10.08818082 5.5 8.125 C4.97535156 7.56941406 4.45070312 7.01382812 3.91015625 6.44140625 C0 2.2265625 0 2.2265625 0 0 Z " fill="#1995C4" transform="translate(144,330)"/>
<path d="M0 0 C3.17325358 2.62260075 4.28734555 5.64750421 5.75 9.4375 C6.19859375 10.57058594 6.6471875 11.70367187 7.109375 12.87109375 C7.9689772 15.89101199 8.14949552 17.14728855 7 20 C3.57542468 13.4500841 1.05473902 7.38317313 0 0 Z " fill="#2189AC" transform="translate(266,298)"/>
<path d="M0 0 C0.33 0 0.66 0 1 0 C1.25 6.625 1.25 6.625 -1 10 C-1.70164642 11.98799818 -2.37372872 13.98698517 -3 16 C-4.29302919 12.37089807 -3.68677944 9.96054037 -2.625 6.3125 C-2.34914062 5.33925781 -2.07328125 4.36601562 -1.7890625 3.36328125 C-1 1 -1 1 0 0 Z " fill="#1F97B8" transform="translate(223,222)"/>
<path d="M0 0 C3.74986874 1.24995625 4.62163516 2.90091854 7 6 C8.31494512 7.35147138 9.64264858 8.69112542 11 10 C7.75 9.9375 7.75 9.9375 4 9 C1.74856133 6.41765824 0 3.51038457 0 0 Z " fill="#1B97BA" transform="translate(247,219)"/>
<path d="M0 0 C0 2 0 2 -1.375 3.9375 C-5.17554978 6.92364626 -9.36381184 7.83210527 -14 9 C-10.73787201 5.33010602 -5.2007339 0 0 0 Z " fill="#064356" transform="translate(208,175)"/>
<path d="M0 0 C0.66 0 1.32 0 2 0 C0 6 -2 12 -4 18 C-4.33 18 -4.66 18 -5 18 C-4.48041715 13.62065881 -3.94324258 9.31196609 -3 5 C-2.34 5 -1.68 5 -1 5 C-0.67 3.35 -0.34 1.7 0 0 Z " fill="#012940" transform="translate(232,294)"/>
<path d="M0 0 C1.75 0.0625 1.75 0.0625 4 1 C6.00840495 3.70049044 8 6.55126733 8 10 C8.66 10.33 9.32 10.66 10 11 C9.67 11.99 9.34 12.98 9 14 C7.82767315 12.3790787 6.6622923 10.75313167 5.5 9.125 C4.8503125 8.22007812 4.200625 7.31515625 3.53125 6.3828125 C2 4 2 4 2 2 C1.34 2 0.68 2 0 2 C0 1.34 0 0.68 0 0 Z " fill="#032E41" transform="translate(173,298)"/>
<path d="M0 0 C3.83520308 3.28731693 6.32465344 7.25147171 8 12 C7.67 12.66 7.34 13.32 7 14 C6.731875 13.360625 6.46375 12.72125 6.1875 12.0625 C5.11332248 9.66868314 5.11332248 9.66868314 2 9 C1.26953125 6.93359375 1.26953125 6.93359375 0.8125 4.4375 C0.65394531 3.61121094 0.49539063 2.78492188 0.33203125 1.93359375 C0.16767578 0.97646484 0.16767578 0.97646484 0 0 Z " fill="#053D4F" transform="translate(323,204)"/>
<path d="M0 0 C0.66 0.33 1.32 0.66 2 1 C-2.44959692 5.11587715 -6.16062875 7.27690684 -12 9 C-12.99 8.67 -13.98 8.34 -15 8 C-12.54665445 6.63603538 -10.08808766 5.28365831 -7.625 3.9375 C-6.92632812 3.54755859 -6.22765625 3.15761719 -5.5078125 2.75585938 C-3.70389816 1.77584822 -1.85416518 0.88124929 0 0 Z " fill="#01A2E1" transform="translate(314,356)"/>
<path d="M0 0 C0 3 0 3 -2.15234375 5.48046875 C-3.07144531 6.37378906 -3.99054688 7.26710938 -4.9375 8.1875 C-6.31228516 9.53908203 -6.31228516 9.53908203 -7.71484375 10.91796875 C-10 13 -10 13 -11 13 C-11 11.35 -11 9.7 -11 8 C-9.948125 7.690625 -9.948125 7.690625 -8.875 7.375 C-5.04274884 5.54218423 -2.89547493 3.09748481 0 0 Z " fill="#1B95C7" transform="translate(351,335)"/>
<path d="M0 0 C6.72222222 2.44444444 6.72222222 2.44444444 8 5 C8 7 8 7 7 10 C6.34 10 5.68 10 5 10 C4.67 8.02 4.34 6.04 4 4 C3.34 4 2.68 4 2 4 C2 3.34 2 2.68 2 2 C1.34 2 0.68 2 0 2 C0 1.34 0 0.68 0 0 Z " fill="#06465B" transform="translate(230,280)"/>
<path d="M0 0 C2.64 0 5.28 0 8 0 C8.28875 0.7425 8.5775 1.485 8.875 2.25 C9.82368263 4.56900199 10.86559779 6.76932676 12 9 C8 6 4 3 0 0 Z " fill="#053548" transform="translate(263,231)"/>
<path d="M0 0 C1.83979073 2.7596861 2.48323221 4.29741882 3.1875 7.4375 C3.45626953 8.58025391 3.45626953 8.58025391 3.73046875 9.74609375 C4.0154963 12.12958496 3.72875415 13.73104204 3 16 C-0.39366878 10.62669111 -0.32712342 6.13053511 0 0 Z " fill="#074059" transform="translate(333,222)"/>
<path d="M0 0 C3.59634744 3.49359465 6.83451967 7.11098131 10 11 C9.01 11.495 9.01 11.495 8 12 C5.4375 10.875 5.4375 10.875 3 9 C2.3125 6.5625 2.3125 6.5625 2 4 C1.00916033 1.76591887 1.00916033 1.76591887 0 0 Z " fill="#02A4E1" transform="translate(147,321)"/>
<path d="M0 0 C1.32 0 2.64 0 4 0 C4 1.32 4 2.64 4 4 C5.32 4 6.64 4 8 4 C8 5.32 8 6.64 8 8 C8.66 8 9.32 8 10 8 C9.67 8.66 9.34 9.32 9 10 C7.86800647 9.0919838 6.74467637 8.17316174 5.625 7.25 C4.99851563 6.73953125 4.37203125 6.2290625 3.7265625 5.703125 C1.91687682 3.91800519 0.99882545 2.32050356 0 0 Z " fill="#032940" transform="translate(184,312)"/>
<path d="M0 0 C2.35953094 2.35953094 2.49141413 3.77895617 3 7 C3.99 7 4.98 7 6 7 C6 8.32 6 9.64 6 11 C6.99 11.33 7.98 11.66 9 12 C9 12.66 9 13.32 9 14 C4.76654521 12.48805186 3.14335143 9.84325085 1 6 C0.25 2.625 0.25 2.625 0 0 Z " fill="#001B2A" transform="translate(247,212)"/>
<path d="M0 0 C0.33 0.66 0.66 1.32 1 2 C-0.375 4 -0.375 4 -2 6 C-2.66 6 -3.32 6 -4 6 C-3.67 6.99 -3.34 7.98 -3 9 C-4.98 9.33 -6.96 9.66 -9 10 C-8.34 8.68 -7.68 7.36 -7 6 C-6.34 6 -5.68 6 -5 6 C-4.67 5.01 -4.34 4.02 -4 3 C-1.9375 1.3125 -1.9375 1.3125 0 0 Z " fill="#04314A" transform="translate(193,184)"/>
<path d="M0 0 C0.99 0 1.98 0 3 0 C1.5140084 4.59306496 -0.85014682 7.43569245 -4 11 C-4.33 9.68 -4.66 8.36 -5 7 C-4.34 7 -3.68 7 -3 7 C-1.79371992 4.66785852 -0.8345262 2.50357861 0 0 Z " fill="#001B2B" transform="translate(321,300)"/>
<path d="M0 0 C0 0.33 0 0.66 0 1 C-1.12019531 1.20496094 -2.24039063 1.40992187 -3.39453125 1.62109375 C-4.86720824 1.89311689 -6.33986336 2.16525849 -7.8125 2.4375 C-8.55048828 2.57220703 -9.28847656 2.70691406 -10.04882812 2.84570312 C-13.11315076 3.41419737 -16.03928953 4.01309651 -19 5 C-19.99 4.34 -20.98 3.68 -22 3 C-7.40318907 -0.44419134 -7.40318907 -0.44419134 0 0 Z " fill="#1F8FBD" transform="translate(237,118)"/>
<path d="M0 0 C0.33 0.66 0.66 1.32 1 2 C1.66 2 2.32 2 3 2 C5.5393228 5.41831915 6.3636198 7.75776898 6 12 C5.67 11.34 5.34 10.68 5 10 C4.34 10 3.68 10 3 10 C3 8.68 3 7.36 3 6 C2.34 6 1.68 6 1 6 C0.67 4.02 0.34 2.04 0 0 Z " fill="#1EA8D0" transform="translate(172,298)"/>
<path d="M0 0 C3.08028948 2.77226053 4.83016411 5.00306072 6 9 C6.125 11.8125 6.125 11.8125 6 14 C3.52813545 11.03653214 2.33751639 8.45958311 1.3125 4.75 C1.06113281 3.85796875 0.80976563 2.9659375 0.55078125 2.046875 C0.36902344 1.37140625 0.18726563 0.6959375 0 0 Z " fill="#02273D" transform="translate(167,284)"/>
<path d="M0 0 C6.0018137 -0.21824777 11.19233704 0.4943096 17 2 C17 2.33 17 2.66 17 3 C5.47835991 3.3690205 5.47835991 3.3690205 0 1 C0 0.67 0 0.34 0 0 Z " fill="#001724" transform="translate(258,166)"/>
<path d="M0 0 C0.66 0 1.32 0 2 0 C1.91291331 1.45945288 1.80473093 2.91765868 1.6875 4.375 C1.62949219 5.18710937 1.57148438 5.99921875 1.51171875 6.8359375 C1 9 1 9 -2 11 C-1.125 3.375 -1.125 3.375 0 0 Z " fill="#13C0EE" transform="translate(233,298)"/>
<path d="M0 0 C4.97959184 4.97959184 4.97959184 4.97959184 5.0625 9.125 C5.041875 10.07375 5.02125 11.0225 5 12 C4.34 12 3.68 12 3 12 C2.01 8.04 1.02 4.08 0 0 Z " fill="#001221" transform="translate(328,216)"/>
<path d="M0 0 C3.03393954 3.46735947 4.9351577 7.52949826 6 12 C5.67 12.99 5.34 13.98 5 15 C4.34 14.67 3.68 14.34 3 14 C2.40234375 12.109375 2.40234375 12.109375 1.9375 9.75 C1.77378906 8.94175781 1.61007812 8.13351563 1.44140625 7.30078125 C1.29574219 6.54152344 1.15007812 5.78226563 1 5 C0.690625 3.4840625 0.690625 3.4840625 0.375 1.9375 C0.25125 1.298125 0.1275 0.65875 0 0 Z " fill="#188DBE" transform="translate(370,193)"/>
<path d="M0 0 C-3.87233424 2.58155616 -5.53536019 3.12134154 -10.125 3.0625 C-11.03507813 3.05347656 -11.94515625 3.04445312 -12.8828125 3.03515625 C-13.58148438 3.02355469 -14.28015625 3.01195312 -15 3 C-15 2.67 -15 2.34 -15 2 C-9.87080814 -0.10428384 -5.4389165 -0.21755666 0 0 Z " fill="#14C0ED" transform="translate(237,163)"/>
<path d="M0 0 C0 3.76603821 -1.07407243 4.77142649 -3.375 7.6875 C-4.00148438 8.49574219 -4.62796875 9.30398438 -5.2734375 10.13671875 C-5.84320313 10.75160156 -6.41296875 11.36648438 -7 12 C-7.66 12 -8.32 12 -9 12 C-7.55575365 8.76138697 -5.74227753 6.38030837 -3.375 3.75 C-2.74335938 3.04359375 -2.11171875 2.3371875 -1.4609375 1.609375 C-0.97882813 1.07828125 -0.49671875 0.5471875 0 0 Z " fill="#01A3E4" transform="translate(349,325)"/>
<path d="M0 0 C0.33 0 0.66 0 1 0 C1.20674944 5.78898419 0.59162079 10.42932723 -1 16 C-1.66 16 -2.32 16 -3 16 C-3.33 16.66 -3.66 17.32 -4 18 C-3.51764925 15.26667907 -2.91352117 12.75137335 -2 10.125 C-0.92157038 6.75490744 -0.42090374 3.50753118 0 0 Z " fill="#12C1F1" transform="translate(277,256)"/>
<path d="M0 0 C-1.28813342 0.83878455 -2.58063256 1.67086783 -3.875 2.5 C-4.59429687 2.9640625 -5.31359375 3.428125 -6.0546875 3.90625 C-8 5 -8 5 -10 5 C-9.67 3.68 -9.34 2.36 -9 1 C-2.25 -1.125 -2.25 -1.125 0 0 Z " fill="#1F9ED1" transform="translate(323,362)"/>
<path d="M0 0 C-0.99 1.485 -0.99 1.485 -2 3 C-5.625 3.1875 -5.625 3.1875 -9 3 C-9 2.01 -9 1.02 -9 0 C-5.62182575 -0.84454356 -3.32534757 -1.10844919 0 0 Z " fill="#1794B7" transform="translate(290,334)"/>
<path d="M0 0 C0.33 0 0.66 0 1 0 C1.34833144 4.87664009 0.41685712 7.77050005 -2 12 C-2.66 12 -3.32 12 -4 12 C-3.52494322 10.18641846 -3.04483958 8.37415821 -2.5625 6.5625 C-2.29566406 5.55316406 -2.02882812 4.54382813 -1.75390625 3.50390625 C-1 1 -1 1 0 0 Z " fill="#1B8EB1" transform="translate(223,322)"/>
<path d="M0 0 C1.2685771 3.80573129 0.88817586 6.10569048 0 10 C-2.0625 12.4375 -2.0625 12.4375 -4 14 C-3.36843005 8.94744036 -1.86540627 4.70406799 0 0 Z " fill="#01A3E2" transform="translate(370,282)"/>
<path d="M0 0 C1.9375 0.5 1.9375 0.5 4 2 C4.68790422 4.69658452 4.81946464 7.2017019 5 10 C4.67 9.34 4.34 8.68 4 8 C3.34 8 2.68 8 2 8 C1.34 5.36 0.68 2.72 0 0 Z " fill="#043B4A" transform="translate(275,320)"/>
<path d="M0 0 C3 1 3 1 3.984375 2.92578125 C4.23703125 3.71339844 4.4896875 4.50101562 4.75 5.3125 C5.01296875 6.09238281 5.2759375 6.87226563 5.546875 7.67578125 C6.03298902 10.16921091 5.80665429 11.6181897 5 14 C4.35089846 12.41800369 3.70585306 10.83434276 3.0625 9.25 C2.70285156 8.36828125 2.34320313 7.4865625 1.97265625 6.578125 C1.14643424 4.38813896 0.50630057 2.28101729 0 0 Z " fill="#012A40" transform="translate(266,296)"/>
<path d="M0 0 C0.8125 1.6875 0.8125 1.6875 1 4 C-1.25 6.75 -1.25 6.75 -4 9 C-4.99 9 -5.98 9 -7 9 C-5.76302083 7.53515625 -4.52604167 6.0703125 -3.2890625 4.60546875 C-2.10798901 3.1344954 -1.04641471 1.56962206 0 0 Z " fill="#063D51" transform="translate(277,270)"/>
<path d="M0 0 C0.66 0.66 1.32 1.32 2 2 C1.9765625 4.6015625 1.9765625 4.6015625 1.625 7.625 C1.51414062 8.62789063 1.40328125 9.63078125 1.2890625 10.6640625 C1.19367188 11.43492187 1.09828125 12.20578125 1 13 C0.67 13 0.34 13 0 13 C-0.19397476 11.02145742 -0.38001321 9.0421352 -0.5625 7.0625 C-0.66691406 5.96035156 -0.77132813 4.85820312 -0.87890625 3.72265625 C-0.91886719 2.82417969 -0.95882813 1.92570312 -1 1 C-0.67 0.67 -0.34 0.34 0 0 Z " fill="#09A7E4" transform="translate(379,264)"/>
<path d="M0 0 C0.33 0.66 0.66 1.32 1 2 C-0.98 4.97 -0.98 4.97 -3 8 C-3.99 7.67 -4.98 7.34 -6 7 C-2.25 1.125 -2.25 1.125 0 0 Z " fill="#1CA2C1" transform="translate(235,204)"/>
<path d="M0 0 C0.75 1.6875 0.75 1.6875 1 4 C-0.8125 6.75 -0.8125 6.75 -3 9 C-3.66 9 -4.32 9 -5 9 C-4.34 7.02 -3.68 5.04 -3 3 C-2.34 3 -1.68 3 -1 3 C-0.67 2.01 -0.34 1.02 0 0 Z " fill="#02283C" transform="translate(179,199)"/>
<path d="M0 0 C1.8161982 0.42188459 3.62794073 0.86299165 5.4375 1.3125 C6.44683594 1.55613281 7.45617187 1.79976562 8.49609375 2.05078125 C9.32238281 2.36402344 10.14867187 2.67726562 11 3 C11.33 3.99 11.66 4.98 12 6 C8.98782888 5.35550393 6.48344164 4.34977818 3.75 2.9375 C3.04359375 2.57527344 2.3371875 2.21304688 1.609375 1.83984375 C1.07828125 1.56269531 0.5471875 1.28554687 0 1 C0 0.67 0 0.34 0 0 Z " fill="#17B0D9" transform="translate(296,177)"/>
<path d="M0 0 C2.96404505 2.80804268 5.44499019 5.18315774 7 9 C4.0625 7.875 4.0625 7.875 1 6 C0.125 2.8125 0.125 2.8125 0 0 Z " fill="#158FC6" transform="translate(352,165)"/>
<path d="M0 0 C-0.33 0.99 -0.66 1.98 -1 3 C-4.93275129 4.36133698 -8.90892832 5.25616878 -13 6 C-9.13878354 2.5930443 -5.3218579 0 0 0 Z " fill="#0DA5E3" transform="translate(205,126)"/>
<path d="M0 0 C3.36720387 1.39332574 4.9859524 2.9789286 7 6 C6.67 6.66 6.34 7.32 6 8 C1.3125 4.38671875 1.3125 4.38671875 0 3 C0 2.01 0 1.02 0 0 Z " fill="#022D3D" transform="translate(316,196)"/>
<path d="M0 0 C1.65 0 3.3 0 5 0 C5.33 0.99 5.66 1.98 6 3 C6.66 3 7.32 3 8 3 C8 3.66 8 4.32 8 5 C2.25 3.125 2.25 3.125 0 2 C0 1.34 0 0.68 0 0 Z " fill="#1E9EC5" transform="translate(288,172)"/>
<path d="M0 0 C3.3 0 6.6 0 10 0 C6.71299843 1.64350079 4.52069985 2.41321669 1 3 C0.67 2.01 0.34 1.02 0 0 Z " fill="#012539" transform="translate(280,332)"/>
<path d="M0 0 C1.65 0 3.3 0 5 0 C5.33 0.66 5.66 1.32 6 2 C5.67 2.66 5.34 3.32 5 4 C3.35 3.67 1.7 3.34 0 3 C0 2.01 0 1.02 0 0 Z " fill="#011621" transform="translate(194,320)"/>
<path d="M0 0 C0.33 0 0.66 0 1 0 C1 2.64 1 5.28 1 8 C0.01 8 -0.98 8 -2 8 C-2.33 8.99 -2.66 9.98 -3 11 C-2.32829194 7.1936543 -1.27253436 3.64793184 0 0 Z " fill="#188BB2" transform="translate(235,290)"/>
<path d="M0 0 C0.99 0.33 1.98 0.66 3 1 C0.36 2.98 -2.28 4.96 -5 7 C-5.33 6.01 -5.66 5.02 -6 4 C-4.68 3.67 -3.36 3.34 -2 3 C-2 2.34 -2 1.68 -2 1 C-1.34 0.67 -0.68 0.34 0 0 Z " fill="#001A24" transform="translate(242,194)"/>
<path d="M0 0 C3.91402949 1.26941497 5.79072873 2.51167694 8 6 C5.69 5.34 3.38 4.68 1 4 C0.67 2.68 0.34 1.36 0 0 Z " fill="#158FC3" transform="translate(327,142)"/>
<path d="M0 0 C1.670625 0.061875 1.670625 0.061875 3.375 0.125 C0.43671403 2.62798434 -1.80402761 3.59430939 -5.625 4.125 C-5.625 0.12403124 -3.58125362 0.1234915 0 0 Z " fill="#229FD0" transform="translate(309.625,366.875)"/>
<path d="M0 0 C0.99 0.33 1.98 0.66 3 1 C4.1875 3.5625 4.1875 3.5625 5 6 C4.01 6 3.02 6 2 6 C2 5.34 2 4.68 2 4 C1.34 4 0.68 4 0 4 C-0.33 3.01 -0.66 2.02 -1 1 C-0.67 0.67 -0.34 0.34 0 0 Z " fill="#01ACF2" transform="translate(338,337)"/>
<path d="M0 0 C0.66 0 1.32 0 2 0 C2 1.32 2 2.64 2 4 C1.34 4 0.68 4 0 4 C-0.66 5.98 -1.32 7.96 -2 10 C-3 8 -3 8 -2.44140625 6.0546875 C-2.15136719 5.33539063 -1.86132812 4.61609375 -1.5625 3.875 C-1.27503906 3.15054688 -0.98757812 2.42609375 -0.69140625 1.6796875 C-0.46324219 1.12539062 -0.23507813 0.57109375 0 0 Z " fill="#022738" transform="translate(227,209)"/>
<path d="M0 0 C0.99 0 1.98 0 3 0 C2.55090939 1.48199902 2.09043436 2.96055236 1.625 4.4375 C1.36976563 5.26121094 1.11453125 6.08492187 0.8515625 6.93359375 C0 9 0 9 -2 10 C-1.34 6.7 -0.68 3.4 0 0 Z " fill="#1C94B5" transform="translate(173,202)"/>
<path d="M0 0 C1.98 0 3.96 0 6 0 C4.35 1.65 2.7 3.3 1 5 C0.34 4.67 -0.32 4.34 -1 4 C-0.67 2.68 -0.34 1.36 0 0 Z " fill="#19A1D3" transform="translate(324,356)"/>
<path d="M0 0 C1 2 1 2 0.44140625 4.1640625 C0.15136719 4.97617187 -0.13867188 5.78828125 -0.4375 6.625 C-0.72496094 7.44226563 -1.01242187 8.25953125 -1.30859375 9.1015625 C-1.53675781 9.72804688 -1.76492188 10.35453125 -2 11 C-2.33 11 -2.66 11 -3 11 C-3.36923077 4.6 -3.36923077 4.6 -1.5 1.5625 C-1.005 1.046875 -0.51 0.53125 0 0 Z " fill="#033E53" transform="translate(335,275)"/>
<path d="M0 0 C2.97 1.98 2.97 1.98 6 4 C5.67 5.32 5.34 6.64 5 8 C2.5 5.6875 2.5 5.6875 0 3 C0 2.01 0 1.02 0 0 Z " fill="#1E9FBD" transform="translate(271,237)"/>
<path d="M0 0 C0.99 0.33 1.98 0.66 3 1 C3 4.63 3 8.26 3 12 C0.8008587 7.60171741 0.48144941 4.81449408 0 0 Z " fill="#00A3E3" transform="translate(370,216)"/>
<path d="M0 0 C0.66 0.33 1.32 0.66 2 1 C0.6875 3.5 0.6875 3.5 -1 6 C-1.99 6 -2.98 6 -4 6 C-3.6875 4.125 -3.6875 4.125 -3 2 C-2.01 1.34 -1.02 0.68 0 0 Z " fill="#000C1D" transform="translate(197,182)"/>
<path d="M0 0 C0.99 0 1.98 0 3 0 C3 0.66 3 1.32 3 2 C2.34 2 1.68 2 1 2 C0.71125 2.639375 0.4225 3.27875 0.125 3.9375 C-1 6 -1 6 -3 7 C-3 5.68 -3 4.36 -3 3 C-2.01 3 -1.02 3 0 3 C0 2.01 0 1.02 0 0 Z " fill="#1EA2C9" transform="translate(185,188)"/>
</svg>
